NotoSansArmenian-CondensedBold.ufo
<glyph name="dieresiscomb" format="2">
  <unicode hex="0308"/>
  <anchor x="0" y="553" name="_top"/>
  <outline>
    <contour>
      <point x="-169" y="690" type="curve" smooth="yes"/>
      <point x="-169" y="642"/>
      <point x="-141" y="614"/>
      <point x="-98" y="614" type="curve" smooth="yes"/>
      <point x="-53" y="614"/>
      <point x="-25" y="644"/>
      <point x="-25" y="690" type="curve" smooth="yes"/>
      <point x="-25" y="737"/>
      <point x="-53" y="767"/>
      <point x="-98" y="767" type="curve" smooth="yes"/>
      <point x="-141" y="767"/>
      <point x="-169" y="739"/>
    </contour>
    <contour>
      <point x="24" y="690" type="curve" smooth="yes"/>
      <point x="24" y="643"/>
      <point x="51" y="614"/>
      <point x="96" y="614" type="curve" smooth="yes"/>
      <point x="142" y="614"/>
      <point x="169" y="644"/>
      <point x="169" y="690" type="curve" smooth="yes"/>
      <point x="169" y="737"/>
      <point x="142" y="767"/>
      <point x="96" y="767" type="curve" smooth="yes"/>
      <point x="52" y="767"/>
      <point x="24" y="739"/>
    </contour>
  </outline>
</glyph>
<glyph name="uni0531" format="2">
  <advance width="716"/>
  <unicode hex="0531"/>
  <note>
uni0531
</note>
  <anchor x="295" y="714" name="top"/>
  <outline>
    <contour>
      <point x="292" y="-10" type="curve" smooth="yes"/>
      <point x="448" y="-10"/>
      <point x="533" y="77"/>
      <point x="533" y="242" type="curve" smooth="yes"/>
      <point x="533" y="714" type="line"/>
      <point x="363" y="714" type="line"/>
      <point x="363" y="247" type="line" smooth="yes"/>
      <point x="363" y="163"/>
      <point x="342" y="135"/>
      <point x="294" y="135" type="curve" smooth="yes"/>
      <point x="249" y="135"/>
      <point x="226" y="164"/>
      <point x="226" y="246" type="curve" smooth="yes"/>
      <point x="226" y="714" type="line"/>
      <point x="56" y="714" type="line"/>
      <point x="56" y="238" type="line" smooth="yes"/>
      <point x="56" y="72"/>
      <point x="140" y="-10"/>
    </contour>
    <contour>
      <point x="527" y="240" type="curve"/>
      <point x="490" y="98" type="line"/>
      <point x="500" y="102"/>
      <point x="515" y="104"/>
      <point x="529" y="104" type="curve" smooth="yes"/>
      <point x="551" y="104"/>
      <point x="562" y="90"/>
      <point x="562" y="51" type="curve" smooth="yes"/>
      <point x="562" y="0" type="line"/>
      <point x="708" y="0" type="line"/>
      <point x="708" y="62" type="line" smooth="yes"/>
      <point x="708" y="187"/>
      <point x="660" y="244"/>
      <point x="559" y="244" type="curve" smooth="yes"/>
      <point x="548" y="244"/>
      <point x="535" y="242"/>
    </contour>
  </outline>
</glyph>
<glyph name="uni0532" format="2">
  <advance width="581"/>
  <unicode hex="0532"/>
  <note>
uni0532
</note>
  <outline>
    <contour>
      <point x="56" y="0" type="line"/>
      <point x="226" y="0" type="line"/>
      <point x="226" y="467" type="line" smooth="yes"/>
      <point x="226" y="551"/>
      <point x="247" y="579"/>
      <point x="295" y="579" type="curve" smooth="yes"/>
      <point x="351" y="579"/>
      <point x="363" y="543"/>
      <point x="363" y="430" type="curve"/>
      <point x="533" y="430" type="line"/>
      <point x="533" y="645"/>
      <point x="471" y="724"/>
      <point x="297" y="724" type="curve" smooth="yes"/>
      <point x="141" y="724"/>
      <point x="56" y="637"/>
      <point x="56" y="472" type="curve" smooth="yes"/>
    </contour>
    <contour>
      <point x="210" y="361" type="line"/>
      <point x="210" y="216" type="line"/>
      <point x="533" y="216" type="line"/>
      <point x="533" y="361" type="line"/>
    </contour>
  </outline>
</glyph>
<glyph name="uni0533" format="2">
  <advance width="653"/>
  <unicode hex="0533"/>
  <note>
uni0533
</note>
  <outline>
    <contour>
      <point x="514" y="0" type="line"/>
      <point x="514" y="472" type="line" smooth="yes"/>
      <point x="514" y="637"/>
      <point x="429" y="724"/>
      <point x="273" y="724" type="curve" smooth="yes"/>
      <point x="131" y="724"/>
      <point x="38" y="638"/>
      <point x="38" y="465" type="curve" smooth="yes"/>
      <point x="38" y="307"/>
      <point x="119" y="219"/>
      <point x="269" y="219" type="curve" smooth="yes"/>
      <point x="638" y="219" type="line"/>
      <point x="638" y="364" type="line"/>
      <point x="290" y="364" type="line" smooth="yes"/>
      <point x="225" y="364"/>
      <point x="208" y="401"/>
      <point x="208" y="465" type="curve" smooth="yes"/>
      <point x="208" y="545"/>
      <point x="227" y="579"/>
      <point x="275" y="579" type="curve" smooth="yes"/>
      <point x="323" y="579"/>
      <point x="344" y="551"/>
      <point x="344" y="467" type="curve" smooth="yes"/>
      <point x="344" y="0" type="line"/>
    </contour>
  </outline>
</glyph>
<glyph name="uni0534" format="2">
  <advance width="667"/>
  <unicode hex="0534"/>
  <note>
uni0534
</note>
  <outline>
    <contour>
      <point x="517" y="0" type="line"/>
      <point x="517" y="476" type="line" smooth="yes"/>
      <point x="517" y="642"/>
      <point x="433" y="724"/>
      <point x="281" y="724" type="curve" smooth="yes"/>
      <point x="125" y="724"/>
      <point x="40" y="632"/>
      <point x="40" y="427" type="curve"/>
      <point x="210" y="427" type="line"/>
      <point x="210" y="551"/>
      <point x="231" y="579"/>
      <point x="279" y="579" type="curve" smooth="yes"/>
      <point x="324" y="579"/>
      <point x="347" y="550"/>
      <point x="347" y="468" type="curve" smooth="yes"/>
      <point x="347" y="0" type="line"/>
    </contour>
    <contour>
      <point x="508" y="364" type="line"/>
      <point x="508" y="219" type="line"/>
      <point x="652" y="219" type="line"/>
      <point x="652" y="364" type="line"/>
    </contour>
  </outline>
</glyph>
<glyph name="uni0535" format="2">
  <advance width="581"/>
  <unicode hex="0535"/>
  <note>
uni0535
</note>
  <outline>
    <contour>
      <point x="56" y="714" type="line"/>
      <point x="56" y="242" type="line" smooth="yes"/>
      <point x="56" y="77"/>
      <point x="141" y="-10"/>
      <point x="297" y="-10" type="curve" smooth="yes"/>
      <point x="461" y="-10"/>
      <point x="533" y="69"/>
      <point x="533" y="284" type="curve"/>
      <point x="363" y="284" type="line"/>
      <point x="363" y="171"/>
      <point x="351" y="135"/>
      <point x="295" y="135" type="curve" smooth="yes"/>
      <point x="247" y="135"/>
      <point x="226" y="163"/>
      <point x="226" y="247" type="curve" smooth="yes"/>
      <point x="226" y="714" type="line"/>
    </contour>
    <contour>
      <point x="210" y="411" type="line"/>
      <point x="533" y="411" type="line"/>
      <point x="533" y="556" type="line"/>
      <point x="210" y="556" type="line"/>
    </contour>
  </outline>
</glyph>
<glyph name="uni0536" format="2">
  <advance width="616"/>
  <unicode hex="0536"/>
  <note>
uni0536
</note>
  <outline>
    <contour>
      <point x="266" y="290" type="curve" smooth="yes"/>
      <point x="402" y="290"/>
      <point x="525" y="396"/>
      <point x="525" y="485" type="curve" smooth="yes"/>
      <point x="525" y="643"/>
      <point x="431" y="724"/>
      <point x="288" y="724" type="curve" smooth="yes"/>
      <point x="150" y="724"/>
      <point x="52" y="637"/>
      <point x="52" y="510" type="curve" smooth="yes"/>
      <point x="52" y="379"/>
      <point x="132" y="290"/>
    </contour>
    <contour>
      <point x="424" y="0" type="line"/>
      <point x="580" y="0" type="line"/>
      <point x="580" y="73" type="line"/>
      <point x="580" y="171"/>
      <point x="533" y="208"/>
      <point x="443" y="208" type="curve" smooth="yes"/>
      <point x="212" y="208" type="line"/>
      <point x="212" y="262" type="line"/>
      <point x="56" y="262" type="line"/>
      <point x="56" y="0" type="line"/>
      <point x="212" y="0" type="line"/>
      <point x="212" y="63" type="line"/>
      <point x="379" y="63" type="line" smooth="yes"/>
      <point x="419" y="63"/>
      <point x="424" y="48"/>
      <point x="424" y="18" type="curve" smooth="yes"/>
    </contour>
    <contour>
      <point x="210" y="94" type="line"/>
      <point x="386" y="94"/>
      <point x="525" y="261"/>
      <point x="525" y="485" type="curve"/>
      <point x="364" y="485" type="line"/>
      <point x="364" y="326"/>
      <point x="311" y="208"/>
      <point x="210" y="208" type="curve"/>
    </contour>
    <contour>
      <point x="290" y="439" type="curve" smooth="yes"/>
      <point x="244" y="439"/>
      <point x="222" y="465"/>
      <point x="222" y="505" type="curve" smooth="yes"/>
      <point x="222" y="547"/>
      <point x="242" y="575"/>
      <point x="288" y="575" type="curve" smooth="yes"/>
      <point x="336" y="575"/>
      <point x="355" y="548"/>
      <point x="355" y="505" type="curve" smooth="yes"/>
      <point x="355" y="464"/>
      <point x="335" y="439"/>
    </contour>
  </outline>
</glyph>
<glyph name="uni0537" format="2">
  <advance width="520"/>
  <unicode hex="0537"/>
  <note>
uni0537
</note>
  <outline>
    <contour>
      <point x="152" y="516" type="line"/>
      <point x="152" y="371" type="line"/>
      <point x="472" y="371" type="line"/>
      <point x="472" y="516" type="line"/>
    </contour>
    <contour>
      <point x="230" y="0" type="line" smooth="yes"/>
      <point x="292" y="0"/>
      <point x="300" y="-23"/>
      <point x="300" y="-70" type="curve" smooth="yes"/>
      <point x="300" y="-148" type="line"/>
      <point x="470" y="-148" type="line"/>
      <point x="470" y="-31" type="line" smooth="yes"/>
      <point x="470" y="96"/>
      <point x="410" y="145"/>
      <point x="295" y="145" type="curve" smooth="yes"/>
      <point x="226" y="145" type="line"/>
      <point x="226" y="714" type="line"/>
      <point x="56" y="714" type="line"/>
      <point x="56" y="0" type="line"/>
    </contour>
  </outline>
</glyph>
<glyph name="uni0538" format="2">
  <advance width="581"/>
  <unicode hex="0538"/>
  <note>
uni0538
</note>
  <outline>
    <contour>
      <point x="56" y="0" type="line"/>
      <point x="226" y="0" type="line"/>
      <point x="226" y="467" type="line" smooth="yes"/>
      <point x="226" y="551"/>
      <point x="247" y="579"/>
      <point x="295" y="579" type="curve" smooth="yes"/>
      <point x="351" y="579"/>
      <point x="363" y="543"/>
      <point x="363" y="430" type="curve"/>
      <point x="533" y="430" type="line"/>
      <point x="533" y="645"/>
      <point x="461" y="724"/>
      <point x="297" y="724" type="curve" smooth="yes"/>
      <point x="141" y="724"/>
      <point x="56" y="637"/>
      <point x="56" y="472" type="curve" smooth="yes"/>
    </contour>
    <contour>
      <point x="210" y="145" type="line"/>
      <point x="210" y="0" type="line"/>
      <point x="533" y="0" type="line"/>
      <point x="533" y="145" type="line"/>
    </contour>
  </outline>
</glyph>
<glyph name="uni0539" format="2">
  <advance width="834"/>
  <unicode hex="0539"/>
  <note>
uni0539
</note>
  <outline>
    <contour>
      <point x="56" y="0" type="line"/>
      <point x="226" y="0" type="line"/>
      <point x="226" y="452" type="line" smooth="yes"/>
      <point x="226" y="536"/>
      <point x="273" y="579"/>
      <point x="381" y="579" type="curve" smooth="yes"/>
      <point x="507" y="579"/>
      <point x="534" y="543"/>
      <point x="534" y="430" type="curve"/>
      <point x="704" y="430" type="line"/>
      <point x="704" y="635"/>
      <point x="595" y="724"/>
      <point x="383" y="724" type="curve" smooth="yes"/>
      <point x="171" y="724"/>
      <point x="56" y="622"/>
      <point x="56" y="457" type="curve" smooth="yes"/>
    </contour>
    <contour>
      <point x="819" y="502" type="line"/>
      <point x="490" y="502" type="line" smooth="yes"/>
      <point x="360" y="502"/>
      <point x="280" y="440"/>
      <point x="280" y="312" type="curve" smooth="yes"/>
      <point x="280" y="183"/>
      <point x="357" y="106"/>
      <point x="494" y="106" type="curve" smooth="yes"/>
      <point x="616" y="106"/>
      <point x="701" y="187"/>
      <point x="704" y="357" type="curve"/>
      <point x="819" y="357" type="line"/>
    </contour>
    <contour>
      <point x="534" y="357" type="line"/>
      <point x="534" y="276"/>
      <point x="516" y="251"/>
      <point x="492" y="251" type="curve" smooth="yes"/>
      <point x="460" y="251"/>
      <point x="450" y="267"/>
      <point x="450" y="303" type="curve" smooth="yes"/>
      <point x="450" y="334"/>
      <point x="466" y="357"/>
      <point x="498" y="357" type="curve" smooth="yes"/>
    </contour>
  </outline>
</glyph>
<glyph name="uni053A" format="2">
  <advance width="653"/>
  <unicode hex="053A"/>
  <note>
uni053A
</note>
  <outline>
    <contour>
      <point x="514" y="714" type="line"/>
      <point x="344" y="714" type="line"/>
      <point x="344" y="247" type="line" smooth="yes"/>
      <point x="344" y="163"/>
      <point x="323" y="135"/>
      <point x="275" y="135" type="curve" smooth="yes"/>
      <point x="227" y="135"/>
      <point x="208" y="174"/>
      <point x="208" y="254" type="curve"/>
      <point x="38" y="254" type="line"/>
      <point x="38" y="81"/>
      <point x="131" y="-10"/>
      <point x="273" y="-10" type="curve" smooth="yes"/>
      <point x="429" y="-10"/>
      <point x="514" y="77"/>
      <point x="514" y="242" type="curve" smooth="yes"/>
    </contour>
    <contour>
      <point x="269" y="505" type="line" smooth="yes"/>
      <point x="124" y="505"/>
      <point x="38" y="412"/>
      <point x="38" y="254" type="curve"/>
      <point x="208" y="254" type="line"/>
      <point x="208" y="318"/>
      <point x="235" y="360"/>
      <point x="290" y="360" type="curve" smooth="yes"/>
      <point x="638" y="360" type="line"/>
      <point x="638" y="505" type="line"/>
    </contour>
  </outline>
</glyph>
<glyph name="uni053B" format="2">
  <advance width="577"/>
  <unicode hex="053B"/>
  <note>
uni053B
</note>
  <outline>
    <contour>
      <point x="56" y="714" type="line"/>
      <point x="56" y="0" type="line"/>
      <point x="226" y="0" type="line"/>
      <point x="226" y="419" type="line"/>
      <point x="221" y="419" type="line"/>
      <point x="224" y="442"/>
      <point x="226" y="477"/>
      <point x="226" y="521" type="curve" smooth="yes"/>
      <point x="226" y="714" type="line"/>
    </contour>
    <contour>
      <point x="212" y="164" type="line"/>
      <point x="226" y="164" type="line"/>
      <point x="226" y="215" type="line" smooth="yes"/>
      <point x="226" y="302"/>
      <point x="257" y="347"/>
      <point x="302" y="347" type="curve" smooth="yes"/>
      <point x="355" y="347"/>
      <point x="367" y="312"/>
      <point x="367" y="251" type="curve" smooth="yes"/>
      <point x="367" y="175" type="line"/>
      <point x="537" y="175" type="line"/>
      <point x="537" y="304" type="line" smooth="yes"/>
      <point x="537" y="438"/>
      <point x="470" y="494"/>
      <point x="365" y="494" type="curve" smooth="yes"/>
      <point x="306" y="494"/>
      <point x="253" y="468"/>
      <point x="212" y="398" type="curve"/>
    </contour>
  </outline>
</glyph>
<glyph name="uni053C" format="2">
  <advance width="389"/>
  <unicode hex="053C"/>
  <note>
uni053C
</note>
  <outline>
    <contour>
      <point x="56" y="0" type="line"/>
      <point x="374" y="0" type="line"/>
      <point x="374" y="145" type="line"/>
      <point x="226" y="145" type="line"/>
      <point x="226" y="714" type="line"/>
      <point x="56" y="714" type="line"/>
    </contour>
  </outline>
</glyph>
<glyph name="uni053D" format="2">
  <advance width="828"/>
  <unicode hex="053D"/>
  <note>
uni053D
</note>
  <outline>
    <contour>
      <point x="56" y="0" type="line"/>
      <point x="226" y="0" type="line"/>
      <point x="226" y="714" type="line"/>
      <point x="56" y="714" type="line"/>
    </contour>
    <contour>
      <point x="336" y="596" type="line"/>
      <point x="336" y="378" type="line" smooth="yes"/>
      <point x="336" y="246"/>
      <point x="414" y="170"/>
      <point x="562" y="170" type="curve" smooth="yes"/>
      <point x="709" y="170"/>
      <point x="788" y="252"/>
      <point x="788" y="391" type="curve"/>
      <point x="788" y="596" type="line"/>
      <point x="618" y="596" type="line"/>
      <point x="618" y="400" type="line" smooth="yes"/>
      <point x="618" y="340"/>
      <point x="602" y="315"/>
      <point x="562" y="315" type="curve" smooth="yes"/>
      <point x="524" y="315"/>
      <point x="506" y="341"/>
      <point x="506" y="400" type="curve"/>
      <point x="506" y="596" type="line"/>
    </contour>
    <contour>
      <point x="122" y="596" type="line"/>
      <point x="122" y="451" type="line"/>
      <point x="442" y="451" type="line"/>
      <point x="442" y="596" type="line"/>
    </contour>
  </outline>
</glyph>
<glyph name="uni053E" format="2">
  <advance width="619"/>
  <unicode hex="053E"/>
  <note>
uni053E
</note>
  <outline>
    <contour>
      <point x="36" y="256" type="curve" smooth="yes"/>
      <point x="36" y="95"/>
      <point x="139" y="-10"/>
      <point x="311" y="-10" type="curve" smooth="yes"/>
      <point x="470" y="-10"/>
      <point x="577" y="93"/>
      <point x="577" y="256" type="curve" smooth="yes"/>
      <point x="577" y="397"/>
      <point x="511" y="496"/>
      <point x="328" y="582" type="curve" smooth="yes"/>
      <point x="216" y="635"/>
      <point x="213" y="658"/>
      <point x="213" y="714" type="curve"/>
      <point x="43" y="714" type="line"/>
      <point x="43" y="590"/>
      <point x="66" y="545"/>
      <point x="215" y="473" type="curve" smooth="yes"/>
      <point x="369" y="399"/>
      <point x="407" y="341"/>
      <point x="407" y="255" type="curve" smooth="yes"/>
      <point x="407" y="175"/>
      <point x="376" y="135"/>
      <point x="306" y="135" type="curve" smooth="yes"/>
      <point x="244" y="135"/>
      <point x="206" y="182"/>
      <point x="206" y="259" type="curve" smooth="yes"/>
      <point x="206" y="424"/>
      <point x="366" y="579"/>
      <point x="575" y="579" type="curve"/>
      <point x="575" y="724" type="line"/>
      <point x="293" y="724"/>
      <point x="36" y="490"/>
    </contour>
  </outline>
</glyph>
<glyph name="uni053F" format="2">
  <advance width="577"/>
  <unicode hex="053F"/>
  <note>
uni053F
</note>
  <outline>
    <contour>
      <point x="521" y="0" type="line"/>
      <point x="521" y="625" type="line"/>
      <point x="351" y="625" type="line"/>
      <point x="351" y="265" type="line"/>
      <point x="356" y="265" type="line"/>
      <point x="353" y="242"/>
      <point x="351" y="207"/>
      <point x="351" y="163" type="curve" smooth="yes"/>
      <point x="351" y="0" type="line"/>
    </contour>
    <contour>
      <point x="365" y="520" type="line"/>
      <point x="351" y="520" type="line"/>
      <point x="351" y="469" type="line" smooth="yes"/>
      <point x="351" y="382"/>
      <point x="320" y="337"/>
      <point x="275" y="337" type="curve" smooth="yes"/>
      <point x="222" y="337"/>
      <point x="210" y="372"/>
      <point x="210" y="433" type="curve" smooth="yes"/>
      <point x="210" y="714" type="line"/>
      <point x="40" y="714" type="line"/>
      <point x="40" y="380" type="line" smooth="yes"/>
      <point x="40" y="246"/>
      <point x="107" y="190"/>
      <point x="212" y="190" type="curve" smooth="yes"/>
      <point x="271" y="190"/>
      <point x="324" y="216"/>
      <point x="365" y="286" type="curve"/>
    </contour>
  </outline>
</glyph>
<glyph name="uni0540" format="2">
  <advance width="567"/>
  <unicode hex="0540"/>
  <note>
uni0540
</note>
  <outline>
    <contour>
      <point x="472" y="536" type="curve"/>
      <point x="562" y="658" type="line"/>
      <point x="505" y="707"/>
      <point x="446" y="724"/>
      <point x="379" y="724" type="curve" smooth="yes"/>
      <point x="254" y="724"/>
      <point x="183" y="669"/>
      <point x="133" y="486" type="curve" smooth="yes"/>
      <point x="24" y="85" type="line"/>
      <point x="190" y="50" type="line"/>
      <point x="299" y="448" type="line" smooth="yes"/>
      <point x="328" y="553"/>
      <point x="355" y="575"/>
      <point x="393" y="575" type="curve" smooth="yes"/>
      <point x="418" y="575"/>
      <point x="445" y="563"/>
    </contour>
    <contour>
      <point x="24" y="85" type="line"/>
      <point x="289" y="2" type="line" smooth="yes"/>
      <point x="326" y="-10"/>
      <point x="334" y="-41"/>
      <point x="334" y="-72" type="curve" smooth="yes"/>
      <point x="334" y="-145" type="line"/>
      <point x="504" y="-145" type="line"/>
      <point x="504" y="-57" type="line" smooth="yes"/>
      <point x="504" y="38"/>
      <point x="478" y="92"/>
      <point x="367" y="128" type="curve" smooth="yes"/>
      <point x="88" y="219" type="line"/>
    </contour>
  </outline>
</glyph>
<glyph name="uni0541" format="2">
  <advance width="561"/>
  <unicode hex="0541"/>
  <note>
uni0541
</note>
  <outline>
    <contour>
      <point x="274" y="724" type="curve" smooth="yes"/>
      <point x="136" y="724"/>
      <point x="38" y="637"/>
      <point x="38" y="524" type="curve" smooth="yes"/>
      <point x="38" y="409"/>
      <point x="123" y="357"/>
      <point x="252" y="357" type="curve" smooth="yes"/>
      <point x="287" y="357"/>
      <point x="327" y="360"/>
      <point x="351" y="365" type="curve"/>
      <point x="351" y="490" type="line"/>
      <point x="329" y="485"/>
      <point x="301" y="483"/>
      <point x="276" y="483" type="curve" smooth="yes"/>
      <point x="230" y="483"/>
      <point x="208" y="506"/>
      <point x="208" y="528" type="curve" smooth="yes"/>
      <point x="208" y="559"/>
      <point x="228" y="579"/>
      <point x="274" y="579" type="curve" smooth="yes"/>
      <point x="322" y="579"/>
      <point x="342" y="551"/>
      <point x="342" y="460" type="curve" smooth="yes"/>
      <point x="342" y="240"/>
      <point x="274" y="116"/>
      <point x="215" y="116" type="curve"/>
      <point x="215" y="-10" type="line"/>
      <point x="391" y="-10"/>
      <point x="513" y="201"/>
      <point x="513" y="429" type="curve" smooth="yes"/>
      <point x="513" y="638"/>
      <point x="417" y="724"/>
    </contour>
    <contour>
      <point x="537" y="-24" type="curve"/>
      <point x="537" y="147" type="line"/>
      <point x="381" y="271"/>
      <point x="298" y="312"/>
      <point x="202" y="312" type="curve" smooth="yes"/>
      <point x="98" y="312"/>
      <point x="32" y="247"/>
      <point x="32" y="149" type="curve" smooth="yes"/>
      <point x="32" y="43"/>
      <point x="95" y="-10"/>
      <point x="215" y="-10" type="curve"/>
      <point x="215" y="116" type="line"/>
      <point x="198" y="116"/>
      <point x="178" y="124"/>
      <point x="178" y="150" type="curve" smooth="yes"/>
      <point x="178" y="171"/>
      <point x="191" y="186"/>
      <point x="214" y="186" type="curve" smooth="yes"/>
      <point x="270" y="186"/>
      <point x="415" y="90"/>
    </contour>
  </outline>
</glyph>
<glyph name="uni0543" format="2">
  <advance width="637"/>
  <unicode hex="0543"/>
  <note>
uni0543
</note>
  <outline>
    <contour>
      <point x="581" y="579" type="curve"/>
      <point x="581" y="724" type="line"/>
      <point x="299" y="720"/>
      <point x="42" y="480"/>
      <point x="42" y="226" type="curve" smooth="yes"/>
      <point x="42" y="72"/>
      <point x="98" y="0"/>
      <point x="267" y="0" type="curve"/>
      <point x="583" y="0" type="line"/>
      <point x="583" y="256" type="line" smooth="yes"/>
      <point x="583" y="397"/>
      <point x="534" y="552"/>
      <point x="275" y="622" type="curve" smooth="yes"/>
      <point x="36" y="687" type="line"/>
      <point x="36" y="539" type="line"/>
      <point x="211" y="492" type="line" smooth="yes"/>
      <point x="380" y="447"/>
      <point x="413" y="341"/>
      <point x="413" y="255" type="curve" smooth="yes"/>
      <point x="413" y="145" type="line"/>
      <point x="282" y="145" type="line" smooth="yes"/>
      <point x="230" y="145"/>
      <point x="212" y="161"/>
      <point x="212" y="229" type="curve" smooth="yes"/>
      <point x="212" y="414"/>
      <point x="388" y="579"/>
    </contour>
  </outline>
</glyph>
<glyph name="uni0544" format="2">
  <advance width="683"/>
  <unicode hex="0544"/>
  <note>
uni0544
</note>
  <outline>
    <contour>
      <point x="297" y="-10" type="curve" smooth="yes"/>
      <point x="449" y="-10"/>
      <point x="533" y="72"/>
      <point x="533" y="238" type="curve" smooth="yes"/>
      <point x="533" y="569" type="line"/>
      <point x="668" y="569" type="line"/>
      <point x="668" y="714" type="line"/>
      <point x="363" y="714" type="line"/>
      <point x="363" y="242" type="line" smooth="yes"/>
      <point x="363" y="164"/>
      <point x="340" y="135"/>
      <point x="295" y="135" type="curve" smooth="yes"/>
      <point x="247" y="135"/>
      <point x="226" y="163"/>
      <point x="226" y="243" type="curve" smooth="yes"/>
      <point x="226" y="714" type="line"/>
      <point x="56" y="714" type="line"/>
      <point x="56" y="242" type="line" smooth="yes"/>
      <point x="56" y="77"/>
      <point x="141" y="-10"/>
    </contour>
  </outline>
</glyph>
<glyph name="uni0545" format="2">
  <advance width="536"/>
  <unicode hex="0545"/>
  <note>
uni0545
</note>
  <outline>
    <contour>
      <point x="473" y="547" type="curve" smooth="yes"/>
      <point x="473" y="653"/>
      <point x="390" y="724"/>
      <point x="265" y="724" type="curve" smooth="yes"/>
      <point x="165" y="724"/>
      <point x="108" y="707"/>
      <point x="41" y="654" type="curve"/>
      <point x="103" y="528" type="line"/>
      <point x="137" y="561"/>
      <point x="177" y="579"/>
      <point x="226" y="579" type="curve" smooth="yes"/>
      <point x="277" y="579"/>
      <point x="302" y="557"/>
      <point x="302" y="516" type="curve" smooth="yes"/>
      <point x="302" y="458"/>
      <point x="275" y="444"/>
      <point x="191" y="444" type="curve" smooth="yes"/>
      <point x="36" y="444" type="line"/>
      <point x="36" y="299" type="line"/>
      <point x="198" y="299" type="line" smooth="yes"/>
      <point x="279" y="299"/>
      <point x="320" y="273"/>
      <point x="320" y="219" type="curve" smooth="yes"/>
      <point x="320" y="157"/>
      <point x="288" y="135"/>
      <point x="206" y="135" type="curve" smooth="yes"/>
      <point x="156" y="135"/>
      <point x="85" y="154"/>
      <point x="44" y="182" type="curve"/>
      <point x="44" y="26" type="line"/>
      <point x="95" y="2"/>
      <point x="158" y="-10"/>
      <point x="234" y="-10" type="curve" smooth="yes"/>
      <point x="422" y="-10"/>
      <point x="494" y="85"/>
      <point x="494" y="204" type="curve" smooth="yes"/>
      <point x="494" y="302"/>
      <point x="442" y="362"/>
      <point x="344" y="373" type="curve"/>
      <point x="344" y="377" type="line"/>
      <point x="430" y="396"/>
      <point x="473" y="453"/>
    </contour>
  </outline>
</glyph>
<glyph name="uni0546" format="2">
  <advance width="568"/>
  <unicode hex="0546"/>
  <note>
uni0546
</note>
  <outline>
    <contour>
      <point x="283" y="-10" type="curve" smooth="yes"/>
      <point x="439" y="-10"/>
      <point x="524" y="77"/>
      <point x="524" y="242" type="curve" smooth="yes"/>
      <point x="524" y="419" type="line"/>
      <point x="354" y="419" type="line"/>
      <point x="354" y="243" type="line" smooth="yes"/>
      <point x="354" y="163"/>
      <point x="333" y="135"/>
      <point x="285" y="135" type="curve" smooth="yes"/>
      <point x="240" y="135"/>
      <point x="217" y="164"/>
      <point x="217" y="279" type="curve"/>
      <point x="47" y="279" type="line"/>
      <point x="47" y="72"/>
      <point x="131" y="-10"/>
    </contour>
    <contour>
      <point x="343" y="644" type="line"/>
      <point x="289" y="644" type="line" smooth="yes"/>
      <point x="247" y="644"/>
      <point x="227" y="668"/>
      <point x="227" y="707" type="curve" smooth="yes"/>
      <point x="227" y="760" type="line"/>
      <point x="57" y="760" type="line"/>
      <point x="57" y="686" type="line" smooth="yes"/>
      <point x="57" y="576"/>
      <point x="96" y="539"/>
      <point x="206" y="539" type="curve" smooth="yes"/>
      <point x="258" y="539" type="line"/>
      <point x="350" y="634" type="line"/>
    </contour>
    <contour>
      <point x="217" y="279" type="line"/>
      <point x="217" y="404"/>
      <point x="255" y="503"/>
      <point x="350" y="634" type="curve"/>
      <point x="192" y="634" type="line"/>
      <point x="93" y="504"/>
      <point x="47" y="406"/>
      <point x="47" y="279" type="curve"/>
    </contour>
  </outline>
</glyph>
<glyph name="uni0547" format="2">
  <advance width="575"/>
  <unicode hex="0547"/>
  <note>
uni0547
</note>
  <outline>
    <contour>
      <point x="380" y="552" type="curve"/>
      <point x="282" y="654" type="line"/>
      <point x="135" y="533"/>
      <point x="47" y="412"/>
      <point x="47" y="238" type="curve" smooth="yes"/>
      <point x="47" y="72"/>
      <point x="131" y="-10"/>
      <point x="283" y="-10" type="curve" smooth="yes"/>
      <point x="439" y="-10"/>
      <point x="524" y="77"/>
      <point x="524" y="242" type="curve" smooth="yes"/>
      <point x="524" y="274" type="line"/>
      <point x="354" y="274" type="line"/>
      <point x="354" y="247" type="line" smooth="yes"/>
      <point x="354" y="163"/>
      <point x="333" y="135"/>
      <point x="285" y="135" type="curve" smooth="yes"/>
      <point x="240" y="135"/>
      <point x="217" y="164"/>
      <point x="217" y="220" type="curve" smooth="yes"/>
      <point x="217" y="354"/>
      <point x="287" y="468"/>
    </contour>
    <contour>
      <point x="70" y="724" type="line"/>
      <point x="42" y="568" type="line"/>
      <point x="509" y="501" type="line"/>
      <point x="537" y="656" type="line"/>
    </contour>
  </outline>
</glyph>
<glyph name="uni0548" format="2">
  <advance width="589"/>
  <unicode hex="0548"/>
  <note>
uni0548
</note>
  <anchor x="294" y="714" name="top"/>
  <outline>
    <contour>
      <point x="56" y="0" type="line"/>
      <point x="226" y="0" type="line"/>
      <point x="226" y="471" type="line" smooth="yes"/>
      <point x="226" y="551"/>
      <point x="247" y="579"/>
      <point x="295" y="579" type="curve" smooth="yes"/>
      <point x="340" y="579"/>
      <point x="363" y="550"/>
      <point x="363" y="472" type="curve" smooth="yes"/>
      <point x="363" y="0" type="line"/>
      <point x="533" y="0" type="line"/>
      <point x="533" y="476" type="line" smooth="yes"/>
      <point x="533" y="642"/>
      <point x="449" y="724"/>
      <point x="297" y="724" type="curve" smooth="yes"/>
      <point x="141" y="724"/>
      <point x="56" y="637"/>
      <point x="56" y="472" type="curve" smooth="yes"/>
    </contour>
  </outline>
</glyph>
<glyph name="uni0549" format="2">
  <advance width="561"/>
  <unicode hex="0549"/>
  <note>
uni0549
</note>
  <outline>
    <contour>
      <point x="323" y="116" type="line"/>
      <point x="463" y="240"/>
      <point x="519" y="367"/>
      <point x="519" y="503" type="curve" smooth="yes"/>
      <point x="519" y="642"/>
      <point x="435" y="724"/>
      <point x="283" y="724" type="curve" smooth="yes"/>
      <point x="127" y="724"/>
      <point x="42" y="637"/>
      <point x="42" y="472" type="curve" smooth="yes"/>
      <point x="42" y="440" type="line"/>
      <point x="212" y="440" type="line"/>
      <point x="212" y="467" type="line" smooth="yes"/>
      <point x="212" y="551"/>
      <point x="233" y="579"/>
      <point x="281" y="579" type="curve" smooth="yes"/>
      <point x="326" y="579"/>
      <point x="349" y="550"/>
      <point x="349" y="494" type="curve" smooth="yes"/>
      <point x="349" y="360"/>
      <point x="284" y="270"/>
      <point x="164" y="162" type="curve"/>
    </contour>
    <contour>
      <point x="509" y="0" type="curve"/>
      <point x="509" y="156" type="line"/>
      <point x="353" y="178"/>
      <point x="269" y="231"/>
      <point x="143" y="338" type="curve"/>
      <point x="32" y="226" type="line"/>
      <point x="165" y="74"/>
      <point x="353" y="0"/>
    </contour>
  </outline>
</glyph>
<glyph name="uni054A" format="2">
  <advance width="756"/>
  <unicode hex="054A"/>
  <note>
uni054A
</note>
  <outline>
    <contour>
      <point x="46" y="330" type="line"/>
      <point x="216" y="330" type="line"/>
      <point x="216" y="467" type="line" smooth="yes"/>
      <point x="216" y="551"/>
      <point x="265" y="579"/>
      <point x="373" y="579" type="curve" smooth="yes"/>
      <point x="477" y="579"/>
      <point x="530" y="550"/>
      <point x="530" y="468" type="curve" smooth="yes"/>
      <point x="530" y="0" type="line"/>
      <point x="700" y="0" type="line"/>
      <point x="700" y="476" type="line" smooth="yes"/>
      <point x="700" y="642"/>
      <point x="584" y="724"/>
      <point x="375" y="724" type="curve" smooth="yes"/>
      <point x="163" y="724"/>
      <point x="46" y="637"/>
      <point x="46" y="472" type="curve" smooth="yes"/>
    </contour>
    <contour>
      <point x="288" y="165" type="line"/>
      <point x="458" y="165" type="line"/>
      <point x="458" y="619" type="line"/>
      <point x="288" y="619" type="line"/>
    </contour>
  </outline>
</glyph>
<glyph name="uni054B" format="2">
  <advance width="576"/>
  <unicode hex="054B"/>
  <note>
uni054B
</note>
  <outline>
    <contour>
      <point x="410" y="0" type="line"/>
      <point x="566" y="0" type="line"/>
      <point x="566" y="73" type="line"/>
      <point x="566" y="171"/>
      <point x="519" y="208"/>
      <point x="429" y="208" type="curve" smooth="yes"/>
      <point x="158" y="208" type="line"/>
      <point x="158" y="242" type="line"/>
      <point x="12" y="242" type="line"/>
      <point x="12" y="0" type="line"/>
      <point x="158" y="0" type="line"/>
      <point x="158" y="63" type="line"/>
      <point x="365" y="63" type="line" smooth="yes"/>
      <point x="405" y="63"/>
      <point x="410" y="48"/>
      <point x="410" y="18" type="curve" smooth="yes"/>
    </contour>
    <contour>
      <point x="310" y="313" type="curve"/>
      <point x="296" y="346"/>
      <point x="283" y="362"/>
      <point x="258" y="382" type="curve" smooth="yes"/>
      <point x="229" y="406"/>
      <point x="215" y="445"/>
      <point x="215" y="488" type="curve" smooth="yes"/>
      <point x="215" y="547"/>
      <point x="236" y="579"/>
      <point x="279" y="579" type="curve" smooth="yes"/>
      <point x="329" y="579"/>
      <point x="352" y="545"/>
      <point x="352" y="476" type="curve" smooth="yes"/>
      <point x="352" y="421"/>
      <point x="338" y="357"/>
    </contour>
    <contour>
      <point x="177" y="208" type="curve"/>
      <point x="385" y="208" type="line"/>
      <point x="481" y="297"/>
      <point x="522" y="375"/>
      <point x="522" y="488" type="curve" smooth="yes"/>
      <point x="522" y="639"/>
      <point x="432" y="724"/>
      <point x="280" y="724" type="curve" smooth="yes"/>
      <point x="140" y="724"/>
      <point x="45" y="637"/>
      <point x="45" y="495" type="curve" smooth="yes"/>
      <point x="45" y="401"/>
      <point x="68" y="338"/>
      <point x="143" y="297" type="curve" smooth="yes"/>
      <point x="185" y="274"/>
      <point x="209" y="254"/>
      <point x="209" y="225" type="curve"/>
      <point x="201" y="216"/>
      <point x="188" y="210"/>
    </contour>
  </outline>
</glyph>
<glyph name="uni054C" format="2">
  <advance width="683"/>
  <unicode hex="054C"/>
  <note>
uni054C
</note>
  <outline>
    <contour>
      <point x="56" y="0" type="line"/>
      <point x="226" y="0" type="line"/>
      <point x="226" y="471" type="line" smooth="yes"/>
      <point x="226" y="551"/>
      <point x="247" y="579"/>
      <point x="295" y="579" type="curve" smooth="yes"/>
      <point x="340" y="579"/>
      <point x="363" y="550"/>
      <point x="363" y="472" type="curve" smooth="yes"/>
      <point x="363" y="0" type="line"/>
      <point x="533" y="0" type="line"/>
      <point x="533" y="476" type="line" smooth="yes"/>
      <point x="533" y="642"/>
      <point x="449" y="724"/>
      <point x="297" y="724" type="curve" smooth="yes"/>
      <point x="141" y="724"/>
      <point x="56" y="637"/>
      <point x="56" y="472" type="curve" smooth="yes"/>
    </contour>
    <contour>
      <point x="524" y="364" type="line"/>
      <point x="524" y="219" type="line"/>
      <point x="668" y="219" type="line"/>
      <point x="668" y="364" type="line"/>
    </contour>
  </outline>
</glyph>
<glyph name="uni054D" format="2">
  <advance width="589"/>
  <unicode hex="054D"/>
  <note>
uni054D
</note>
  <outline>
    <contour>
      <point x="533" y="714" type="line"/>
      <point x="363" y="714" type="line"/>
      <point x="363" y="243" type="line" smooth="yes"/>
      <point x="363" y="163"/>
      <point x="342" y="135"/>
      <point x="294" y="135" type="curve" smooth="yes"/>
      <point x="249" y="135"/>
      <point x="226" y="164"/>
      <point x="226" y="242" type="curve" smooth="yes"/>
      <point x="226" y="714" type="line"/>
      <point x="56" y="714" type="line"/>
      <point x="56" y="238" type="line" smooth="yes"/>
      <point x="56" y="72"/>
      <point x="140" y="-10"/>
      <point x="292" y="-10" type="curve" smooth="yes"/>
      <point x="448" y="-10"/>
      <point x="533" y="77"/>
      <point x="533" y="242" type="curve" smooth="yes"/>
    </contour>
  </outline>
</glyph>
<glyph name="uni054E" format="2">
  <advance width="667"/>
  <unicode hex="054E"/>
  <note>
uni054E
</note>
  <outline>
    <contour>
      <point x="521" y="0" type="line"/>
      <point x="521" y="714" type="line"/>
      <point x="351" y="714" type="line"/>
      <point x="351" y="227" type="line"/>
      <point x="356" y="227" type="line"/>
      <point x="353" y="204"/>
      <point x="351" y="169"/>
      <point x="351" y="125" type="curve" smooth="yes"/>
      <point x="351" y="0" type="line"/>
    </contour>
    <contour>
      <point x="365" y="480" type="line"/>
      <point x="351" y="480" type="line"/>
      <point x="351" y="429" type="line" smooth="yes"/>
      <point x="351" y="342"/>
      <point x="320" y="297"/>
      <point x="275" y="297" type="curve" smooth="yes"/>
      <point x="222" y="297"/>
      <point x="210" y="332"/>
      <point x="210" y="393" type="curve" smooth="yes"/>
      <point x="210" y="464" type="line"/>
      <point x="40" y="464" type="line"/>
      <point x="40" y="340" type="line" smooth="yes"/>
      <point x="40" y="206"/>
      <point x="107" y="150"/>
      <point x="212" y="150" type="curve" smooth="yes"/>
      <point x="271" y="150"/>
      <point x="324" y="176"/>
      <point x="365" y="246" type="curve"/>
    </contour>
    <contour>
      <point x="508" y="145" type="line"/>
      <point x="508" y="0" type="line"/>
      <point x="652" y="0" type="line"/>
      <point x="652" y="145" type="line"/>
    </contour>
  </outline>
</glyph>
<glyph name="uni054F" format="2">
  <advance width="490"/>
  <unicode hex="054F"/>
  <note>
uni054F
</note>
  <outline>
    <contour>
      <point x="465" y="217" type="curve" smooth="yes"/>
      <point x="465" y="312"/>
      <point x="414" y="369"/>
      <point x="319" y="422" type="curve" smooth="yes"/>
      <point x="229" y="472"/>
      <point x="206" y="486"/>
      <point x="206" y="524" type="curve" smooth="yes"/>
      <point x="206" y="559"/>
      <point x="222" y="579"/>
      <point x="266" y="579" type="curve" smooth="yes"/>
      <point x="310" y="579"/>
      <point x="360" y="564"/>
      <point x="420" y="533" type="curve"/>
      <point x="465" y="673" type="line"/>
      <point x="398" y="707"/>
      <point x="333" y="724"/>
      <point x="269" y="724" type="curve" smooth="yes"/>
      <point x="115" y="724"/>
      <point x="32" y="642"/>
      <point x="32" y="515" type="curve" smooth="yes"/>
      <point x="32" y="401"/>
      <point x="97" y="358"/>
      <point x="191" y="300" type="curve" smooth="yes"/>
      <point x="271" y="251"/>
      <point x="291" y="226"/>
      <point x="291" y="195" type="curve" smooth="yes"/>
      <point x="291" y="157"/>
      <point x="269" y="135"/>
      <point x="221" y="135" type="curve" smooth="yes"/>
      <point x="164" y="135"/>
      <point x="92" y="157"/>
      <point x="28" y="195" type="curve"/>
      <point x="28" y="35" type="line"/>
      <point x="89" y="1"/>
      <point x="149" y="-10"/>
      <point x="217" y="-10" type="curve" smooth="yes"/>
      <point x="369" y="-10"/>
      <point x="465" y="84"/>
    </contour>
  </outline>
</glyph>
<glyph name="uni0551" format="2">
  <advance width="538"/>
  <unicode hex="0551"/>
  <note>
uni0551
</note>
  <outline>
    <contour>
      <point x="305" y="444" type="line"/>
      <point x="213" y="479"/>
      <point x="194" y="505"/>
      <point x="194" y="538" type="curve" smooth="yes"/>
      <point x="194" y="570"/>
      <point x="212" y="592"/>
      <point x="256" y="592" type="curve" smooth="yes"/>
      <point x="296" y="592"/>
      <point x="314" y="571"/>
      <point x="314" y="538" type="curve" smooth="yes"/>
      <point x="314" y="508"/>
      <point x="297" y="488"/>
      <point x="267" y="474" type="curve" smooth="yes"/>
      <point x="36" y="365" type="line"/>
      <point x="92" y="243" type="line"/>
      <point x="252" y="328" type="line"/>
      <point x="310" y="291"/>
      <point x="336" y="260"/>
      <point x="336" y="221" type="curve" smooth="yes"/>
      <point x="336" y="167"/>
      <point x="300" y="135"/>
      <point x="226" y="135" type="curve" smooth="yes"/>
      <point x="178" y="135"/>
      <point x="105" y="158"/>
      <point x="55" y="188" type="curve"/>
      <point x="55" y="33" type="line"/>
      <point x="105" y="9"/>
      <point x="159" y="-10"/>
      <point x="238" y="-10" type="curve" smooth="yes"/>
      <point x="406" y="-10"/>
      <point x="506" y="73"/>
      <point x="506" y="214" type="curve" smooth="yes"/>
      <point x="506" y="300"/>
      <point x="483" y="350"/>
      <point x="392" y="409" type="curve"/>
      <point x="392" y="413" type="line"/>
      <point x="448" y="455"/>
      <point x="470" y="500"/>
      <point x="470" y="568" type="curve" smooth="yes"/>
      <point x="470" y="668"/>
      <point x="388" y="724"/>
      <point x="260" y="724" type="curve" smooth="yes"/>
      <point x="126" y="724"/>
      <point x="38" y="658"/>
      <point x="38" y="569" type="curve" smooth="yes"/>
      <point x="38" y="481"/>
      <point x="67" y="418"/>
      <point x="198" y="352" type="curve"/>
    </contour>
  </outline>
</glyph>
<glyph name="uni0552" format="2">
  <advance width="541"/>
  <unicode hex="0552"/>
  <note>
uni0552
</note>
  <outline>
    <contour>
      <point x="59" y="0" type="line"/>
      <point x="228" y="0" type="line"/>
      <point x="228" y="429" type="line"/>
      <point x="247" y="429" type="line" smooth="yes"/>
      <point x="267" y="429"/>
      <point x="277" y="423"/>
      <point x="313" y="328" type="curve" smooth="yes"/>
      <point x="363" y="195"/>
      <point x="402" y="177"/>
      <point x="472" y="177" type="curve" smooth="yes"/>
      <point x="526" y="177" type="line"/>
      <point x="526" y="322" type="line"/>
      <point x="509" y="322" type="line" smooth="yes"/>
      <point x="484" y="322"/>
      <point x="472" y="330"/>
      <point x="433" y="431" type="curve" smooth="yes"/>
      <point x="383" y="560"/>
      <point x="364" y="574"/>
      <point x="270" y="574" type="curve" smooth="yes"/>
      <point x="228" y="574" type="line"/>
      <point x="228" y="714" type="line"/>
      <point x="59" y="714" type="line"/>
    </contour>
  </outline>
</glyph>
<glyph name="uni0553" format="2">
  <advance width="743"/>
  <unicode hex="0553"/>
  <note>
uni0553
</note>
  <outline>
    <contour>
      <point x="452" y="714" type="line"/>
      <point x="291" y="714" type="line"/>
      <point x="291" y="636" type="line"/>
      <point x="102" y="636"/>
      <point x="32" y="515"/>
      <point x="32" y="370" type="curve" smooth="yes"/>
      <point x="32" y="204"/>
      <point x="116" y="100"/>
      <point x="291" y="100" type="curve"/>
      <point x="291" y="0" type="line"/>
      <point x="452" y="0" type="line"/>
      <point x="452" y="100" type="line"/>
      <point x="621" y="100"/>
      <point x="711" y="206"/>
      <point x="711" y="369" type="curve" smooth="yes"/>
      <point x="711" y="522"/>
      <point x="621" y="636"/>
      <point x="452" y="636" type="curve"/>
    </contour>
    <contour>
      <point x="291" y="496" type="curve"/>
      <point x="291" y="240" type="line"/>
      <point x="229" y="240"/>
      <point x="199" y="273"/>
      <point x="199" y="371" type="curve" smooth="yes"/>
      <point x="199" y="456"/>
      <point x="227" y="496"/>
    </contour>
    <contour>
      <point x="452" y="496" type="line"/>
      <point x="513" y="496"/>
      <point x="544" y="450"/>
      <point x="544" y="371" type="curve" smooth="yes"/>
      <point x="544" y="280"/>
      <point x="516" y="240"/>
      <point x="452" y="240" type="curve"/>
    </contour>
  </outline>
</glyph>
<glyph name="uni0554" format="2">
  <advance width="575"/>
  <unicode hex="0554"/>
  <note>
uni0554
</note>
  <outline>
    <contour>
      <point x="85" y="0" type="line"/>
      <point x="255" y="0" type="line"/>
      <point x="255" y="294" type="line"/>
      <point x="321" y="294" type="line" smooth="yes"/>
      <point x="460" y="294"/>
      <point x="543" y="369"/>
      <point x="543" y="504" type="curve" smooth="yes"/>
      <point x="543" y="651"/>
      <point x="454" y="724"/>
      <point x="317" y="724" type="curve" smooth="yes"/>
      <point x="167" y="724"/>
      <point x="85" y="637"/>
      <point x="85" y="443" type="curve" smooth="yes"/>
    </contour>
    <contour>
      <point x="255" y="439" type="line"/>
      <point x="255" y="545"/>
      <point x="262" y="579"/>
      <point x="315" y="579" type="curve" smooth="yes"/>
      <point x="357" y="579"/>
      <point x="373" y="557"/>
      <point x="373" y="504" type="curve" smooth="yes"/>
      <point x="373" y="463"/>
      <point x="350" y="439"/>
      <point x="302" y="439" type="curve" smooth="yes"/>
    </contour>
    <contour>
      <point x="15" y="216" type="line"/>
      <point x="15" y="71" type="line"/>
      <point x="445" y="71" type="line"/>
      <point x="445" y="216" type="line"/>
    </contour>
  </outline>
</glyph>
<glyph name="uni0555" format="2">
  <advance width="621"/>
  <unicode hex="0555"/>
  <note>
uni0555
</note>
  <anchor x="310" y="714" name="top"/>
  <outline>
    <contour>
      <point x="582" y="358" type="curve" smooth="yes"/>
      <point x="582" y="599"/>
      <point x="489" y="725"/>
      <point x="311" y="725" type="curve" smooth="yes"/>
      <point x="134" y="725"/>
      <point x="39" y="597"/>
      <point x="39" y="359" type="curve" smooth="yes"/>
      <point x="39" y="119"/>
      <point x="135" y="-10"/>
      <point x="311" y="-10" type="curve" smooth="yes"/>
      <point x="488" y="-10"/>
      <point x="582" y="118"/>
    </contour>
    <contour>
      <point x="216" y="358" type="curve" smooth="yes"/>
      <point x="216" y="505"/>
      <point x="248" y="580"/>
      <point x="311" y="580" type="curve" smooth="yes"/>
      <point x="374" y="580"/>
      <point x="405" y="509"/>
      <point x="405" y="358" type="curve" smooth="yes"/>
      <point x="405" y="204"/>
      <point x="375" y="135"/>
      <point x="311" y="135" type="curve" smooth="yes"/>
      <point x="248" y="135"/>
      <point x="216" y="208"/>
    </contour>
  </outline>
</glyph>
<glyph name="uni0556" format="2">
  <advance width="715"/>
  <unicode hex="0556"/>
  <note>
uni0556
</note>
  <outline>
    <contour>
      <point x="353" y="-10" type="curve" smooth="yes"/>
      <point x="576" y="-10"/>
      <point x="683" y="63"/>
      <point x="683" y="220" type="curve" smooth="yes"/>
      <point x="683" y="350"/>
      <point x="619" y="415"/>
      <point x="444" y="436" type="curve"/>
      <point x="444" y="714" type="line"/>
      <point x="286" y="714" type="line" smooth="yes"/>
      <point x="140" y="714"/>
      <point x="49" y="634"/>
      <point x="49" y="505" type="curve" smooth="yes"/>
      <point x="49" y="387"/>
      <point x="124" y="327"/>
      <point x="279" y="304" type="curve"/>
      <point x="279" y="136" type="line"/>
      <point x="207" y="141"/>
      <point x="123" y="183"/>
      <point x="35" y="238" type="curve"/>
      <point x="35" y="63" type="line"/>
      <point x="115" y="15"/>
      <point x="225" y="-10"/>
    </contour>
    <contour>
      <point x="444" y="134" type="curve"/>
      <point x="444" y="291" type="line"/>
      <point x="489" y="287"/>
      <point x="513" y="264"/>
      <point x="513" y="217" type="curve" smooth="yes"/>
      <point x="513" y="163"/>
      <point x="491" y="137"/>
    </contour>
    <contour>
      <point x="279" y="449" type="line"/>
      <point x="242" y="453"/>
      <point x="219" y="474"/>
      <point x="219" y="505" type="curve" smooth="yes"/>
      <point x="219" y="542"/>
      <point x="238" y="569"/>
      <point x="273" y="569" type="curve" smooth="yes"/>
      <point x="279" y="569" type="line"/>
    </contour>
  </outline>
</glyph>
<glyph name="uni0559" format="2">
  <advance width="228"/>
  <unicode hex="0559"/>
  <note>
uni0559
</note>
  <outline>
    <contour>
      <point x="186" y="431" type="curve"/>
      <point x="186" y="589" type="line"/>
      <point x="163" y="589"/>
      <point x="154" y="593"/>
      <point x="154" y="613" type="curve" smooth="yes"/>
      <point x="154" y="627"/>
      <point x="174" y="654"/>
      <point x="208" y="677" type="curve"/>
      <point x="144" y="765" type="line"/>
      <point x="59" y="718"/>
      <point x="8" y="654"/>
      <point x="8" y="583" type="curve" smooth="yes"/>
      <point x="8" y="486"/>
      <point x="72" y="431"/>
    </contour>
  </outline>
</glyph>
<glyph name="uni055A" format="2">
  <advance width="228"/>
  <unicode hex="055A"/>
  <note>
uni055A
</note>
  <outline>
    <contour>
      <point x="42" y="760" type="curve"/>
      <point x="42" y="602" type="line"/>
      <point x="65" y="602"/>
      <point x="74" y="598"/>
      <point x="74" y="578" type="curve" smooth="yes"/>
      <point x="74" y="564"/>
      <point x="54" y="537"/>
      <point x="20" y="514" type="curve"/>
      <point x="84" y="426" type="line"/>
      <point x="169" y="473"/>
      <point x="220" y="537"/>
      <point x="220" y="608" type="curve" smooth="yes"/>
      <point x="220" y="705"/>
      <point x="156" y="760"/>
    </contour>
  </outline>
</glyph>
<glyph name="uni055B" format="2">
  <advance width="318"/>
  <unicode hex="055B"/>
  <note>
uni055B
</note>
  <outline>
    <contour>
      <point x="241" y="815" type="line"/>
      <point x="87" y="815" type="line"/>
      <point x="80" y="748"/>
      <point x="69" y="681"/>
      <point x="56" y="614" type="curve"/>
      <point x="192" y="614" type="line"/>
      <point x="204" y="642"/>
      <point x="241" y="755"/>
      <point x="252" y="800" type="curve"/>
    </contour>
  </outline>
</glyph>
<glyph name="uni055C" format="2">
  <advance width="275"/>
  <unicode hex="055C"/>
  <note>
uni055C
</note>
  <outline>
    <contour>
      <point x="12" y="602" type="curve"/>
      <point x="154" y="602" type="line"/>
      <point x="154" y="615" type="line" smooth="yes"/>
      <point x="154" y="638"/>
      <point x="166" y="653"/>
      <point x="199" y="675" type="curve" smooth="yes"/>
      <point x="255" y="712"/>
      <point x="263" y="725"/>
      <point x="263" y="816" type="curve"/>
      <point x="121" y="816" type="line"/>
      <point x="121" y="803" type="line" smooth="yes"/>
      <point x="121" y="774"/>
      <point x="117" y="769"/>
      <point x="69" y="732" type="curve" smooth="yes"/>
      <point x="19" y="693"/>
      <point x="12" y="667"/>
    </contour>
  </outline>
</glyph>
<glyph name="uni055D" format="2">
  <advance width="318"/>
  <unicode hex="055D"/>
  <note>
uni055D
</note>
  <outline>
    <contour>
      <point x="77" y="815" type="line"/>
      <point x="66" y="800" type="line"/>
      <point x="77" y="755"/>
      <point x="114" y="642"/>
      <point x="126" y="614" type="curve"/>
      <point x="262" y="614" type="line"/>
      <point x="249" y="681"/>
      <point x="238" y="748"/>
      <point x="231" y="815" type="curve"/>
    </contour>
  </outline>
</glyph>
<glyph name="uni055E" format="2">
  <advance width="379"/>
  <unicode hex="055E"/>
  <note>
uni055E
</note>
  <outline>
    <contour>
      <point x="38" y="584" type="curve"/>
      <point x="170" y="584" type="line"/>
      <point x="171" y="693"/>
      <point x="184" y="737"/>
      <point x="205" y="737" type="curve" smooth="yes"/>
      <point x="219" y="737"/>
      <point x="225" y="730"/>
      <point x="225" y="718" type="curve" smooth="yes"/>
      <point x="225" y="704"/>
      <point x="219" y="698"/>
      <point x="202" y="698" type="curve"/>
      <point x="202" y="587" type="line"/>
      <point x="294" y="587"/>
      <point x="349" y="637"/>
      <point x="349" y="726" type="curve" smooth="yes"/>
      <point x="349" y="810"/>
      <point x="299" y="861"/>
      <point x="222" y="861" type="curve" smooth="yes"/>
      <point x="99" y="861"/>
      <point x="38" y="770"/>
    </contour>
  </outline>
</glyph>
<glyph name="uni055F" format="2">
  <advance width="336"/>
  <unicode hex="055F"/>
  <note>
uni055F
</note>
  <outline>
    <contour>
      <point x="165" y="597" type="curve" smooth="yes"/>
      <point x="331" y="597" type="line"/>
      <point x="331" y="721" type="line"/>
      <point x="173" y="721" type="line" smooth="yes"/>
      <point x="157" y="721"/>
      <point x="152" y="725"/>
      <point x="152" y="737" type="curve" smooth="yes"/>
      <point x="152" y="751"/>
      <point x="161" y="755"/>
      <point x="170" y="755" type="curve" smooth="yes"/>
      <point x="178" y="755"/>
      <point x="195" y="751"/>
      <point x="213" y="744" type="curve"/>
      <point x="247" y="862" type="line"/>
      <point x="217" y="874"/>
      <point x="187" y="879"/>
      <point x="160" y="879" type="curve" smooth="yes"/>
      <point x="82" y="879"/>
      <point x="24" y="816"/>
      <point x="24" y="733" type="curve" smooth="yes"/>
      <point x="24" y="641"/>
      <point x="68" y="597"/>
    </contour>
  </outline>
</glyph>
<glyph name="uni0560" format="2">
  <advance width="789"/>
  <unicode hex="0560"/>
  <note>
uni0561
</note>
  <outline>
    <contour>
      <point x="592" y="518" type="curve" smooth="yes"/>
      <point x="533" y="518"/>
      <point x="493" y="491"/>
      <point x="468" y="445" type="curve"/>
      <point x="457" y="445" type="line"/>
      <point x="440" y="487"/>
      <point x="403" y="518"/>
      <point x="338" y="518" type="curve" smooth="yes"/>
      <point x="274" y="518"/>
      <point x="225" y="491"/>
      <point x="204" y="440" type="curve"/>
      <point x="195" y="440" type="line"/>
      <point x="177" y="508" type="line"/>
      <point x="50" y="508" type="line"/>
      <point x="50" y="0" type="line"/>
      <point x="212" y="0" type="line"/>
      <point x="212" y="203" type="line" smooth="yes"/>
      <point x="212" y="323"/>
      <point x="226" y="373"/>
      <point x="271" y="373" type="curve" smooth="yes"/>
      <point x="301" y="373"/>
      <point x="314" y="335"/>
      <point x="314" y="262" type="curve" smooth="yes"/>
      <point x="314" y="0" type="line"/>
      <point x="476" y="0" type="line"/>
      <point x="476" y="219" type="line" smooth="yes"/>
      <point x="476" y="325"/>
      <point x="489" y="373"/>
      <point x="534" y="373" type="curve" smooth="yes"/>
      <point x="564" y="373"/>
      <point x="578" y="335"/>
      <point x="578" y="262" type="curve" smooth="yes"/>
      <point x="578" y="0" type="line"/>
      <point x="740" y="0" type="line"/>
      <point x="740" y="315" type="line" smooth="yes"/>
      <point x="740" y="452"/>
      <point x="691" y="518"/>
    </contour>
  </outline>
</glyph>
<glyph name="uni0562" format="2">
  <advance width="529"/>
  <unicode hex="0562"/>
  <note>
uni0562
</note>
  <outline>
    <contour>
      <point x="50" y="-240" type="line"/>
      <point x="212" y="-240" type="line"/>
      <point x="212" y="216" type="line" smooth="yes"/>
      <point x="212" y="324"/>
      <point x="233" y="373"/>
      <point x="275" y="373" type="curve" smooth="yes"/>
      <point x="305" y="373"/>
      <point x="318" y="345"/>
      <point x="318" y="295" type="curve" smooth="yes"/>
      <point x="318" y="200" type="line"/>
      <point x="480" y="200" type="line"/>
      <point x="480" y="336" type="line" smooth="yes"/>
      <point x="480" y="454"/>
      <point x="422" y="518"/>
      <point x="320" y="518" type="curve" smooth="yes"/>
      <point x="264" y="518"/>
      <point x="221" y="497"/>
      <point x="198" y="461" type="curve"/>
      <point x="195" y="461" type="line"/>
      <point x="178" y="508" type="line"/>
      <point x="50" y="508" type="line"/>
    </contour>
    <contour>
      <point x="150" y="135" type="line"/>
      <point x="150" y="0" type="line"/>
      <point x="485" y="0" type="line"/>
      <point x="485" y="135" type="line"/>
    </contour>
  </outline>
</glyph>
<glyph name="uni0563" format="2">
  <advance width="629"/>
  <unicode hex="0563"/>
  <note>
uni0563
</note>
  <outline>
    <contour>
      <point x="312" y="-240" type="line"/>
      <point x="474" y="-240" type="line"/>
      <point x="474" y="0" type="line"/>
      <point x="624" y="0" type="line"/>
      <point x="624" y="135" type="line"/>
      <point x="474" y="135" type="line"/>
      <point x="474" y="507" type="line"/>
      <point x="334" y="507" type="line"/>
      <point x="321" y="438" type="line"/>
      <point x="312" y="438" type="line"/>
      <point x="281" y="498"/>
      <point x="249" y="517"/>
      <point x="197" y="517" type="curve" smooth="yes"/>
      <point x="93" y="517"/>
      <point x="32" y="412"/>
      <point x="32" y="250" type="curve" smooth="yes"/>
      <point x="32" y="88"/>
      <point x="93" y="-10"/>
      <point x="192" y="-10" type="curve" smooth="yes"/>
      <point x="243" y="-10"/>
      <point x="282" y="14"/>
      <point x="312" y="71" type="curve"/>
      <point x="317" y="71" type="line"/>
      <point x="314" y="21"/>
      <point x="312" y="-14"/>
      <point x="312" y="-35" type="curve" smooth="yes"/>
    </contour>
    <contour>
      <point x="251" y="125" type="curve" smooth="yes"/>
      <point x="215" y="125"/>
      <point x="196" y="158"/>
      <point x="196" y="248" type="curve" smooth="yes"/>
      <point x="196" y="344"/>
      <point x="216" y="382"/>
      <point x="250" y="382" type="curve" smooth="yes"/>
      <point x="294" y="382"/>
      <point x="312" y="353"/>
      <point x="312" y="264" type="curve" smooth="yes"/>
      <point x="312" y="244" type="line" smooth="yes"/>
      <point x="312" y="156"/>
      <point x="294" y="125"/>
    </contour>
  </outline>
</glyph>
<glyph name="uni0564" format="2">
  <advance width="635"/>
  <unicode hex="0564"/>
  <note>
uni0564
</note>
  <outline>
    <contour>
      <point x="318" y="-240" type="line"/>
      <point x="480" y="-240" type="line"/>
      <point x="480" y="0" type="line"/>
      <point x="630" y="0" type="line"/>
      <point x="630" y="135" type="line"/>
      <point x="480" y="135" type="line"/>
      <point x="480" y="336" type="line" smooth="yes"/>
      <point x="480" y="454"/>
      <point x="422" y="518"/>
      <point x="320" y="518" type="curve" smooth="yes"/>
      <point x="264" y="518"/>
      <point x="221" y="497"/>
      <point x="198" y="461" type="curve"/>
      <point x="195" y="461" type="line"/>
      <point x="178" y="508" type="line"/>
      <point x="50" y="508" type="line"/>
      <point x="50" y="0" type="line"/>
      <point x="212" y="0" type="line"/>
      <point x="212" y="216" type="line" smooth="yes"/>
      <point x="212" y="324"/>
      <point x="233" y="373"/>
      <point x="275" y="373" type="curve" smooth="yes"/>
      <point x="305" y="373"/>
      <point x="318" y="345"/>
      <point x="318" y="295" type="curve" smooth="yes"/>
    </contour>
  </outline>
</glyph>
<glyph name="uni0565" format="2">
  <advance width="529"/>
  <unicode hex="0565"/>
  <note>
uni0565
</note>
  <outline>
    <contour>
      <point x="479" y="293" type="line"/>
      <point x="317" y="293" type="line"/>
      <point x="317" y="292" type="line" smooth="yes"/>
      <point x="317" y="184"/>
      <point x="296" y="135"/>
      <point x="254" y="135" type="curve" smooth="yes"/>
      <point x="224" y="135"/>
      <point x="211" y="163"/>
      <point x="211" y="213" type="curve" smooth="yes"/>
      <point x="211" y="760" type="line"/>
      <point x="49" y="760" type="line"/>
      <point x="49" y="172" type="line" smooth="yes"/>
      <point x="49" y="54"/>
      <point x="107" y="-10"/>
      <point x="209" y="-10" type="curve" smooth="yes"/>
      <point x="265" y="-10"/>
      <point x="308" y="11"/>
      <point x="331" y="47" type="curve"/>
      <point x="334" y="47" type="line"/>
      <point x="351" y="0" type="line"/>
      <point x="479" y="0" type="line"/>
    </contour>
    <contour>
      <point x="149" y="508" type="line"/>
      <point x="149" y="373" type="line"/>
      <point x="484" y="373" type="line"/>
      <point x="484" y="508" type="line"/>
    </contour>
  </outline>
</glyph>
<glyph name="uni0567" format="2">
  <advance width="425"/>
  <unicode hex="0567"/>
  <note>
uni0567
</note>
  <outline>
    <contour>
      <point x="50" y="0" type="line"/>
      <point x="212" y="0" type="line"/>
      <point x="212" y="760" type="line"/>
      <point x="50" y="760" type="line"/>
    </contour>
    <contour>
      <point x="150" y="508" type="line"/>
      <point x="150" y="373" type="line"/>
      <point x="405" y="373" type="line"/>
      <point x="405" y="508" type="line"/>
    </contour>
    <contour>
      <point x="50" y="0" type="line"/>
      <point x="201" y="0" type="line" smooth="yes"/>
      <point x="230" y="0"/>
      <point x="245" y="-14"/>
      <point x="245" y="-51" type="curve" smooth="yes"/>
      <point x="245" y="-83" type="line"/>
      <point x="405" y="-83" type="line"/>
      <point x="405" y="-42" type="line" smooth="yes"/>
      <point x="405" y="95"/>
      <point x="343" y="135"/>
      <point x="218" y="135" type="curve" smooth="yes"/>
      <point x="50" y="135" type="line"/>
    </contour>
  </outline>
</glyph>
<glyph name="uni0569" format="2">
  <advance width="704"/>
  <unicode hex="0569"/>
  <note>
uni0569
</note>
  <outline>
    <contour>
      <point x="50" y="-240" type="line"/>
      <point x="212" y="-240" type="line"/>
      <point x="212" y="264" type="line" smooth="yes"/>
      <point x="212" y="343"/>
      <point x="248" y="384"/>
      <point x="347" y="384" type="curve"/>
      <point x="387" y="518" type="line"/>
      <point x="297" y="518"/>
      <point x="245" y="491"/>
      <point x="212" y="439" type="curve"/>
      <point x="203" y="439" type="line"/>
      <point x="190" y="508" type="line"/>
      <point x="50" y="508" type="line"/>
    </contour>
    <contour>
      <point x="677" y="141" type="curve"/>
      <point x="712" y="264" type="line"/>
      <point x="649" y="297"/>
      <point x="541" y="323"/>
      <point x="440" y="323" type="curve" smooth="yes"/>
      <point x="314" y="323"/>
      <point x="254" y="251"/>
      <point x="254" y="142" type="curve" smooth="yes"/>
      <point x="254" y="45"/>
      <point x="317" y="-30"/>
      <point x="434" y="-30" type="curve" smooth="yes"/>
      <point x="567" y="-30"/>
      <point x="637" y="70"/>
      <point x="637" y="229" type="curve" smooth="yes"/>
      <point x="637" y="430"/>
      <point x="540" y="518"/>
      <point x="387" y="518" type="curve"/>
      <point x="347" y="384" type="line"/>
      <point x="453" y="384"/>
      <point x="475" y="345"/>
      <point x="475" y="227" type="curve" smooth="yes"/>
      <point x="475" y="131"/>
      <point x="461" y="94"/>
      <point x="422" y="94" type="curve" smooth="yes"/>
      <point x="404" y="94"/>
      <point x="389" y="111"/>
      <point x="389" y="139" type="curve" smooth="yes"/>
      <point x="389" y="174"/>
      <point x="411" y="195"/>
      <point x="440" y="195" type="curve" smooth="yes"/>
      <point x="524" y="195"/>
      <point x="618" y="174"/>
    </contour>
  </outline>
</glyph>
<glyph name="uni056A" format="2">
  <advance width="575"/>
  <unicode hex="056A"/>
  <note>
uni056A
</note>
  <outline>
    <contour>
      <point x="275" y="378" type="curve" smooth="yes"/>
      <point x="358" y="378"/>
      <point x="445" y="348"/>
      <point x="533" y="287" type="curve"/>
      <point x="585" y="410" type="line"/>
      <point x="470" y="488"/>
      <point x="385" y="518"/>
      <point x="275" y="518" type="curve" smooth="yes"/>
      <point x="125" y="518"/>
      <point x="32" y="416"/>
      <point x="32" y="247" type="curve" smooth="yes"/>
      <point x="32" y="88"/>
      <point x="112" y="-10"/>
      <point x="256" y="-10" type="curve" smooth="yes"/>
      <point x="397" y="-10"/>
      <point x="462" y="82"/>
      <point x="462" y="246" type="curve" smooth="yes"/>
      <point x="462" y="760" type="line"/>
      <point x="300" y="760" type="line"/>
      <point x="300" y="249" type="line" smooth="yes"/>
      <point x="300" y="163"/>
      <point x="291" y="130"/>
      <point x="256" y="130" type="curve" smooth="yes"/>
      <point x="216" y="130"/>
      <point x="202" y="170"/>
      <point x="202" y="252" type="curve" smooth="yes"/>
      <point x="202" y="330"/>
      <point x="225" y="378"/>
    </contour>
  </outline>
</glyph>
<glyph name="uni056B" format="2">
  <advance width="529"/>
  <unicode hex="056B"/>
  <note>
uni056B
</note>
  <outline>
    <contour>
      <point x="220" y="760" type="line"/>
      <point x="50" y="760" type="line"/>
      <point x="50" y="-240" type="line"/>
      <point x="212" y="-240" type="line"/>
      <point x="212" y="216" type="line" smooth="yes"/>
      <point x="212" y="324"/>
      <point x="233" y="373"/>
      <point x="275" y="373" type="curve" smooth="yes"/>
      <point x="305" y="373"/>
      <point x="318" y="345"/>
      <point x="318" y="295" type="curve" smooth="yes"/>
      <point x="318" y="0" type="line"/>
      <point x="480" y="0" type="line"/>
      <point x="480" y="336" type="line" smooth="yes"/>
      <point x="480" y="454"/>
      <point x="422" y="518"/>
      <point x="335" y="518" type="curve" smooth="yes"/>
      <point x="274" y="518"/>
      <point x="240" y="501"/>
      <point x="219" y="471" type="curve"/>
      <point x="215" y="471" type="line"/>
      <point x="218" y="495"/>
      <point x="220" y="520"/>
      <point x="220" y="544" type="curve" smooth="yes"/>
    </contour>
  </outline>
</glyph>
<glyph name="uni056C" format="2">
  <advance width="266"/>
  <unicode hex="056C"/>
  <note>
uni056C
</note>
  <outline>
    <contour>
      <point x="50" y="-240" type="line"/>
      <point x="318" y="-240" type="line"/>
      <point x="318" y="-105" type="line"/>
      <point x="212" y="-105" type="line"/>
      <point x="212" y="508" type="line"/>
      <point x="50" y="508" type="line"/>
    </contour>
  </outline>
</glyph>
<glyph name="uni056D" format="2">
  <advance width="798"/>
  <unicode hex="056D"/>
  <note>
uni056D
</note>
  <outline>
    <contour>
      <point x="586" y="508" type="line"/>
      <point x="586" y="292" type="line" smooth="yes"/>
      <point x="586" y="184"/>
      <point x="565" y="135"/>
      <point x="523" y="135" type="curve" smooth="yes"/>
      <point x="493" y="135"/>
      <point x="480" y="163"/>
      <point x="480" y="209" type="curve" smooth="yes"/>
      <point x="480" y="336" type="line" smooth="yes"/>
      <point x="480" y="454"/>
      <point x="422" y="518"/>
      <point x="335" y="518" type="curve" smooth="yes"/>
      <point x="274" y="518"/>
      <point x="240" y="501"/>
      <point x="219" y="471" type="curve"/>
      <point x="215" y="471" type="line"/>
      <point x="218" y="495"/>
      <point x="220" y="520"/>
      <point x="220" y="544" type="curve" smooth="yes"/>
      <point x="220" y="760" type="line"/>
      <point x="50" y="760" type="line"/>
      <point x="50" y="-240" type="line"/>
      <point x="212" y="-240" type="line"/>
      <point x="212" y="216" type="line" smooth="yes"/>
      <point x="212" y="324"/>
      <point x="233" y="373"/>
      <point x="275" y="373" type="curve" smooth="yes"/>
      <point x="305" y="373"/>
      <point x="318" y="345"/>
      <point x="318" y="295" type="curve" smooth="yes"/>
      <point x="318" y="172" type="line" smooth="yes"/>
      <point x="318" y="54"/>
      <point x="376" y="-10"/>
      <point x="478" y="-10" type="curve" smooth="yes"/>
      <point x="534" y="-10"/>
      <point x="577" y="11"/>
      <point x="600" y="47" type="curve"/>
      <point x="603" y="47" type="line"/>
      <point x="620" y="0" type="line"/>
      <point x="748" y="0" type="line"/>
      <point x="748" y="508" type="line"/>
    </contour>
  </outline>
</glyph>
<glyph name="uni056E" format="2">
  <advance width="548"/>
  <unicode hex="056E"/>
  <note>
uni056E
</note>
  <outline>
    <contour>
      <point x="257" y="373" type="curve" smooth="yes"/>
      <point x="533" y="373" type="line"/>
      <point x="533" y="508" type="line"/>
      <point x="225" y="508" type="line" smooth="yes"/>
      <point x="117" y="508"/>
      <point x="32" y="415"/>
      <point x="32" y="247" type="curve" smooth="yes"/>
      <point x="32" y="88"/>
      <point x="112" y="-10"/>
      <point x="256" y="-10" type="curve" smooth="yes"/>
      <point x="397" y="-10"/>
      <point x="462" y="82"/>
      <point x="462" y="225" type="curve" smooth="yes"/>
      <point x="462" y="385"/>
      <point x="410" y="545"/>
      <point x="288" y="703" type="curve"/>
      <point x="164" y="614" type="line"/>
      <point x="267" y="475"/>
      <point x="300" y="382"/>
      <point x="300" y="229" type="curve" smooth="yes"/>
      <point x="300" y="163"/>
      <point x="291" y="130"/>
      <point x="256" y="130" type="curve" smooth="yes"/>
      <point x="216" y="130"/>
      <point x="202" y="170"/>
      <point x="202" y="252" type="curve" smooth="yes"/>
      <point x="202" y="335"/>
      <point x="224" y="373"/>
    </contour>
    <contour>
      <point x="164" y="614" type="line"/>
      <point x="248" y="508" type="line"/>
      <point x="448" y="667" type="line"/>
      <point x="364" y="772" type="line"/>
    </contour>
  </outline>
</glyph>
<glyph name="uni0570" format="2">
  <advance width="495"/>
  <unicode hex="0570"/>
  <note>
uni0570
</note>
  <outline>
    <contour>
      <point x="290" y="0" type="line"/>
      <point x="452" y="0" type="line"/>
      <point x="452" y="175" type="line" smooth="yes"/>
      <point x="452" y="294"/>
      <point x="414" y="357"/>
      <point x="312" y="357" type="curve" smooth="yes"/>
      <point x="261" y="357"/>
      <point x="222" y="336"/>
      <point x="199" y="300" type="curve"/>
      <point x="197" y="300" type="line"/>
      <point x="197" y="517"/>
      <point x="226" y="620"/>
      <point x="290" y="620" type="curve" smooth="yes"/>
      <point x="310" y="620"/>
      <point x="344" y="606"/>
      <point x="378" y="565" type="curve"/>
      <point x="467" y="673" type="line"/>
      <point x="424" y="724"/>
      <point x="360" y="760"/>
      <point x="290" y="760" type="curve" smooth="yes"/>
      <point x="97" y="760"/>
      <point x="38" y="592"/>
      <point x="38" y="229" type="curve" smooth="yes"/>
      <point x="38" y="180" type="line"/>
      <point x="194" y="152" type="line"/>
      <point x="204" y="194"/>
      <point x="221" y="212"/>
      <point x="247" y="212" type="curve" smooth="yes"/>
      <point x="277" y="212"/>
      <point x="290" y="184"/>
      <point x="290" y="134" type="curve" smooth="yes"/>
    </contour>
  </outline>
</glyph>
<glyph name="uni0571" format="2">
  <advance width="615"/>
  <unicode hex="0571"/>
  <note>
uni0571
</note>
  <outline>
    <contour>
      <point x="201" y="760" type="curve"/>
      <point x="49" y="760" type="line"/>
      <point x="49" y="609"/>
      <point x="73" y="579"/>
      <point x="190" y="564" type="curve" smooth="yes"/>
      <point x="303" y="550"/>
      <point x="313" y="541"/>
      <point x="313" y="526" type="curve" smooth="yes"/>
      <point x="313" y="510"/>
      <point x="305" y="489"/>
      <point x="205" y="415" type="curve" smooth="yes"/>
      <point x="70" y="315"/>
      <point x="32" y="253"/>
      <point x="32" y="168" type="curve" smooth="yes"/>
      <point x="32" y="58"/>
      <point x="101" y="-10"/>
      <point x="195" y="-10" type="curve" smooth="yes"/>
      <point x="282" y="-10"/>
      <point x="336" y="16"/>
      <point x="367" y="41" type="curve"/>
      <point x="373" y="41" type="line"/>
      <point x="375" y="161" type="line"/>
      <point x="327" y="130"/>
      <point x="287" y="125"/>
      <point x="257" y="125" type="curve" smooth="yes"/>
      <point x="217" y="125"/>
      <point x="194" y="141"/>
      <point x="194" y="175" type="curve" smooth="yes"/>
      <point x="194" y="210"/>
      <point x="214" y="245"/>
      <point x="305" y="314" type="curve" smooth="yes"/>
      <point x="461" y="433"/>
      <point x="499" y="495"/>
      <point x="499" y="571" type="curve" smooth="yes"/>
      <point x="499" y="639"/>
      <point x="470" y="670"/>
      <point x="313" y="687" type="curve" smooth="yes"/>
      <point x="213" y="698"/>
      <point x="201" y="707"/>
    </contour>
    <contour>
      <point x="264" y="438" type="line"/>
      <point x="384" y="0" type="line"/>
      <point x="540" y="43" type="line"/>
      <point x="420" y="481" type="line"/>
    </contour>
    <contour>
      <point x="384" y="0" type="line"/>
      <point x="600" y="0" type="line"/>
      <point x="600" y="135" type="line"/>
      <point x="444" y="135" type="line"/>
    </contour>
  </outline>
</glyph>
<glyph name="uni0573" format="2">
  <advance width="536"/>
  <unicode hex="0573"/>
  <note>
uni0573
</note>
  <outline>
    <contour>
      <point x="498" y="196" type="line" smooth="yes"/>
      <point x="498" y="414"/>
      <point x="322" y="488"/>
      <point x="7" y="508" type="curve"/>
      <point x="7" y="373" type="line"/>
      <point x="215" y="353"/>
      <point x="336" y="322"/>
      <point x="336" y="207" type="curve" smooth="yes"/>
      <point x="336" y="167"/>
      <point x="320" y="135"/>
      <point x="267" y="135" type="curve" smooth="yes"/>
      <point x="233" y="135"/>
      <point x="211" y="167"/>
      <point x="211" y="230" type="curve" smooth="yes"/>
      <point x="211" y="527"/>
      <point x="266" y="620"/>
      <point x="339" y="620" type="curve" smooth="yes"/>
      <point x="365" y="620"/>
      <point x="393" y="606"/>
      <point x="427" y="565" type="curve"/>
      <point x="516" y="673" type="line"/>
      <point x="473" y="724"/>
      <point x="409" y="760"/>
      <point x="339" y="760" type="curve" smooth="yes"/>
      <point x="161" y="760"/>
      <point x="49" y="610"/>
      <point x="49" y="230" type="curve" smooth="yes"/>
      <point x="49" y="64"/>
      <point x="106" y="-10"/>
      <point x="222" y="-10" type="curve" smooth="yes"/>
      <point x="278" y="-10"/>
      <point x="321" y="11"/>
      <point x="350" y="47" type="curve"/>
      <point x="353" y="47" type="line"/>
      <point x="370" y="0" type="line"/>
      <point x="498" y="0" type="line"/>
    </contour>
  </outline>
</glyph>
<glyph name="uni0574" format="2">
  <advance width="539"/>
  <unicode hex="0574"/>
  <note>
uni0574
</note>
  <outline>
    <contour>
      <point x="479" y="387" type="line" smooth="yes"/>
      <point x="479" y="455"/>
      <point x="467" y="490"/>
      <point x="443" y="517" type="curve" smooth="yes"/>
      <point x="412" y="553"/>
      <point x="401" y="572"/>
      <point x="401" y="594" type="curve" smooth="yes"/>
      <point x="401" y="612"/>
      <point x="408" y="625"/>
      <point x="427" y="625" type="curve" smooth="yes"/>
      <point x="445" y="625"/>
      <point x="453" y="614"/>
      <point x="453" y="590" type="curve"/>
      <point x="601" y="590" type="line"/>
      <point x="601" y="701"/>
      <point x="544" y="760"/>
      <point x="418" y="760" type="curve" smooth="yes"/>
      <point x="324" y="760"/>
      <point x="239" y="715"/>
      <point x="239" y="590" type="curve" smooth="yes"/>
      <point x="239" y="547"/>
      <point x="251" y="516"/>
      <point x="284" y="472" type="curve" smooth="yes"/>
      <point x="307" y="442"/>
      <point x="317" y="417"/>
      <point x="317" y="376" type="curve" smooth="yes"/>
      <point x="317" y="292" type="line" smooth="yes"/>
      <point x="317" y="184"/>
      <point x="296" y="135"/>
      <point x="254" y="135" type="curve" smooth="yes"/>
      <point x="224" y="135"/>
      <point x="211" y="163"/>
      <point x="211" y="213" type="curve" smooth="yes"/>
      <point x="211" y="508" type="line"/>
      <point x="49" y="508" type="line"/>
      <point x="49" y="172" type="line" smooth="yes"/>
      <point x="49" y="54"/>
      <point x="107" y="-10"/>
      <point x="209" y="-10" type="curve" smooth="yes"/>
      <point x="265" y="-10"/>
      <point x="308" y="11"/>
      <point x="331" y="47" type="curve"/>
      <point x="334" y="47" type="line"/>
      <point x="351" y="0" type="line"/>
      <point x="479" y="0" type="line"/>
    </contour>
  </outline>
</glyph>
<glyph name="uni0575" format="2">
  <advance width="268"/>
  <unicode hex="0575"/>
  <note>
uni0575
</note>
  <outline>
    <contour>
      <point x="50" y="215" type="line"/>
      <point x="212" y="215" type="line"/>
      <point x="212" y="508" type="line"/>
      <point x="50" y="508" type="line"/>
    </contour>
    <contour>
      <point x="50" y="215" type="line"/>
      <point x="50" y="144"/>
      <point x="53" y="110"/>
      <point x="66" y="65" type="curve" smooth="yes"/>
      <point x="79" y="20"/>
      <point x="86" y="-8"/>
      <point x="86" y="-41" type="curve" smooth="yes"/>
      <point x="86" y="-81"/>
      <point x="65" y="-105"/>
      <point x="31" y="-105" type="curve" smooth="yes"/>
      <point x="8" y="-105" type="line"/>
      <point x="8" y="-240" type="line"/>
      <point x="62" y="-240" type="line" smooth="yes"/>
      <point x="186" y="-240"/>
      <point x="248" y="-170"/>
      <point x="248" y="-70" type="curve" smooth="yes"/>
      <point x="248" y="-11"/>
      <point x="240" y="22"/>
      <point x="228" y="67" type="curve" smooth="yes"/>
      <point x="216" y="111"/>
      <point x="212" y="139"/>
      <point x="212" y="215" type="curve"/>
    </contour>
  </outline>
</glyph>
<glyph name="uni0576" format="2">
  <advance width="539"/>
  <unicode hex="0576"/>
  <note>
uni0576
</note>
  <outline>
    <contour>
      <point x="130" y="508" type="line"/>
      <point x="80" y="409"/>
      <point x="44" y="308"/>
      <point x="44" y="215" type="curve" smooth="yes"/>
      <point x="44" y="68"/>
      <point x="106" y="-10"/>
      <point x="206" y="-10" type="curve" smooth="yes"/>
      <point x="269" y="-10"/>
      <point x="308" y="11"/>
      <point x="341" y="47" type="curve"/>
      <point x="344" y="47" type="line"/>
      <point x="361" y="0" type="line"/>
      <point x="489" y="0" type="line"/>
      <point x="489" y="508" type="line"/>
      <point x="327" y="508" type="line"/>
      <point x="327" y="292" type="line" smooth="yes"/>
      <point x="327" y="165"/>
      <point x="306" y="135"/>
      <point x="264" y="135" type="curve" smooth="yes"/>
      <point x="227" y="135"/>
      <point x="206" y="166"/>
      <point x="206" y="221" type="curve" smooth="yes"/>
      <point x="206" y="344"/>
      <point x="243" y="466"/>
      <point x="272" y="548" type="curve"/>
      <point x="272" y="563" type="line"/>
    </contour>
    <contour>
      <point x="272" y="563" type="line"/>
      <point x="248" y="575" type="line" smooth="yes"/>
      <point x="214" y="592"/>
      <point x="207" y="606"/>
      <point x="207" y="628" type="curve" smooth="yes"/>
      <point x="207" y="647"/>
      <point x="213" y="671"/>
      <point x="221" y="699" type="curve" smooth="yes"/>
      <point x="230" y="730" type="line"/>
      <point x="84" y="765" type="line"/>
      <point x="64" y="696" type="line" smooth="yes"/>
      <point x="57" y="673"/>
      <point x="51" y="645"/>
      <point x="51" y="615" type="curve" smooth="yes"/>
      <point x="51" y="566"/>
      <point x="66" y="544"/>
      <point x="105" y="522" type="curve" smooth="yes"/>
      <point x="130" y="508" type="line"/>
    </contour>
  </outline>
</glyph>
<glyph name="uni0577" format="2">
  <advance width="421"/>
  <unicode hex="0577"/>
  <note>
uni0577
</note>
  <outline>
    <contour>
      <point x="397" y="-240" type="line"/>
      <point x="397" y="-105" type="line"/>
      <point x="221" y="-105" type="line" smooth="yes"/>
      <point x="200" y="-105"/>
      <point x="191" y="-94"/>
      <point x="191" y="-78" type="curve" smooth="yes"/>
      <point x="191" y="-65"/>
      <point x="200" y="-51"/>
      <point x="211" y="-36" type="curve" smooth="yes"/>
      <point x="268" y="44" type="line" smooth="yes"/>
      <point x="356" y="168"/>
      <point x="382" y="235"/>
      <point x="382" y="318" type="curve" smooth="yes"/>
      <point x="382" y="439"/>
      <point x="301" y="518"/>
      <point x="184" y="518" type="curve" smooth="yes"/>
      <point x="111" y="518"/>
      <point x="53" y="503"/>
      <point x="-5" y="475" type="curve"/>
      <point x="47" y="355" type="line"/>
      <point x="92" y="377"/>
      <point x="120" y="383"/>
      <point x="157" y="383" type="curve" smooth="yes"/>
      <point x="195" y="383"/>
      <point x="220" y="357"/>
      <point x="220" y="307" type="curve" smooth="yes"/>
      <point x="220" y="259"/>
      <point x="203" y="220"/>
      <point x="121" y="94" type="curve" smooth="yes"/>
      <point x="80" y="31" type="line" smooth="yes"/>
      <point x="24" y="-55"/>
      <point x="11" y="-100"/>
      <point x="11" y="-143" type="curve" smooth="yes"/>
      <point x="11" y="-206"/>
      <point x="52" y="-240"/>
      <point x="111" y="-240" type="curve" smooth="yes"/>
    </contour>
  </outline>
</glyph>
<glyph name="uni0578" format="2">
  <advance width="529"/>
  <unicode hex="0578"/>
  <note>
uni0578
</note>
  <anchor x="264" y="492" name="top"/>
  <outline>
    <contour>
      <point x="50" y="0" type="line"/>
      <point x="212" y="0" type="line"/>
      <point x="212" y="220" type="line" smooth="yes"/>
      <point x="212" y="324"/>
      <point x="233" y="373"/>
      <point x="275" y="373" type="curve" smooth="yes"/>
      <point x="305" y="373"/>
      <point x="318" y="345"/>
      <point x="318" y="299" type="curve" smooth="yes"/>
      <point x="318" y="0" type="line"/>
      <point x="480" y="0" type="line"/>
      <point x="480" y="336" type="line" smooth="yes"/>
      <point x="480" y="454"/>
      <point x="422" y="518"/>
      <point x="320" y="518" type="curve" smooth="yes"/>
      <point x="264" y="518"/>
      <point x="221" y="497"/>
      <point x="198" y="461" type="curve"/>
      <point x="195" y="461" type="line"/>
      <point x="178" y="507" type="line"/>
      <point x="50" y="507" type="line"/>
    </contour>
  </outline>
</glyph>
<glyph name="uni0579" format="2">
  <advance width="362"/>
  <unicode hex="0579"/>
  <note>
uni0579
</note>
  <outline>
    <contour>
      <point x="-18" y="-169" type="curve" smooth="yes"/>
      <point x="-18" y="-206"/>
      <point x="2" y="-240"/>
      <point x="82" y="-240" type="curve" smooth="yes"/>
      <point x="338" y="-240" type="line"/>
      <point x="338" y="-105" type="line"/>
      <point x="185" y="-105" type="line" smooth="yes"/>
      <point x="164" y="-105"/>
      <point x="155" y="-94"/>
      <point x="155" y="-78" type="curve" smooth="yes"/>
      <point x="155" y="-65"/>
      <point x="162" y="-44"/>
      <point x="168" y="-28" type="curve" smooth="yes"/>
      <point x="293" y="316" type="line"/>
      <point x="153" y="370" type="line"/>
      <point x="33" y="31" type="line" smooth="yes"/>
      <point x="-9" y="-89"/>
      <point x="-18" y="-122"/>
    </contour>
    <contour>
      <point x="293" y="316" type="line"/>
      <point x="269" y="328" type="line" smooth="yes"/>
      <point x="235" y="345"/>
      <point x="228" y="359"/>
      <point x="228" y="381" type="curve" smooth="yes"/>
      <point x="228" y="398"/>
      <point x="235" y="425"/>
      <point x="260" y="508" type="curve"/>
      <point x="96" y="508" type="line"/>
      <point x="76" y="448"/>
      <point x="63" y="397"/>
      <point x="63" y="368" type="curve" smooth="yes"/>
      <point x="63" y="319"/>
      <point x="80" y="296"/>
      <point x="115" y="276" type="curve" smooth="yes"/>
      <point x="140" y="262" type="line"/>
    </contour>
  </outline>
</glyph>
<glyph name="uni057A" format="2">
  <advance width="789"/>
  <unicode hex="057A"/>
  <note>
uni057A
</note>
  <outline>
    <contour>
      <point x="577" y="-240" type="line"/>
      <point x="739" y="-240" type="line"/>
      <point x="739" y="508" type="line"/>
      <point x="577" y="508" type="line"/>
      <point x="577" y="305" type="line" smooth="yes"/>
      <point x="577" y="184"/>
      <point x="563" y="135"/>
      <point x="518" y="135" type="curve" smooth="yes"/>
      <point x="488" y="135"/>
      <point x="475" y="172"/>
      <point x="475" y="246" type="curve" smooth="yes"/>
      <point x="475" y="508" type="line"/>
      <point x="313" y="508" type="line"/>
      <point x="313" y="289" type="line" smooth="yes"/>
      <point x="313" y="182"/>
      <point x="300" y="135"/>
      <point x="255" y="135" type="curve" smooth="yes"/>
      <point x="225" y="135"/>
      <point x="211" y="172"/>
      <point x="211" y="246" type="curve" smooth="yes"/>
      <point x="211" y="508" type="line"/>
      <point x="49" y="508" type="line"/>
      <point x="49" y="193" type="line" smooth="yes"/>
      <point x="49" y="56"/>
      <point x="98" y="-10"/>
      <point x="197" y="-10" type="curve" smooth="yes"/>
      <point x="256" y="-10"/>
      <point x="296" y="17"/>
      <point x="321" y="63" type="curve"/>
      <point x="332" y="63" type="line"/>
      <point x="349" y="21"/>
      <point x="386" y="-10"/>
      <point x="451" y="-10" type="curve" smooth="yes"/>
      <point x="515" y="-10"/>
      <point x="556" y="17"/>
      <point x="577" y="68" type="curve"/>
      <point x="581" y="68" type="line"/>
      <point x="578" y="45"/>
      <point x="577" y="23"/>
      <point x="577" y="0" type="curve" smooth="yes"/>
    </contour>
  </outline>
</glyph>
<glyph name="uni057B" format="2">
  <advance width="454"/>
  <unicode hex="057B"/>
  <note>
uni057B
</note>
  <outline>
    <contour>
      <point x="253" y="-105" type="line" smooth="yes"/>
      <point x="232" y="-105"/>
      <point x="223" y="-94"/>
      <point x="223" y="-78" type="curve" smooth="yes"/>
      <point x="223" y="-65"/>
      <point x="232" y="-51"/>
      <point x="243" y="-36" type="curve" smooth="yes"/>
      <point x="300" y="44" type="line" smooth="yes"/>
      <point x="392" y="173"/>
      <point x="424" y="240"/>
      <point x="424" y="318" type="curve" smooth="yes"/>
      <point x="424" y="446"/>
      <point x="354" y="518"/>
      <point x="224" y="518" type="curve" smooth="yes"/>
      <point x="93" y="518"/>
      <point x="24" y="439"/>
      <point x="24" y="318" type="curve" smooth="yes"/>
      <point x="24" y="249"/>
      <point x="45" y="185"/>
      <point x="110" y="128" type="curve" smooth="yes"/>
      <point x="156" y="88"/>
      <point x="182" y="49"/>
      <point x="195" y="-56" type="curve"/>
      <point x="285" y="74" type="line"/>
      <point x="282" y="130"/>
      <point x="260" y="177"/>
      <point x="221" y="215" type="curve" smooth="yes"/>
      <point x="195" y="240"/>
      <point x="186" y="273"/>
      <point x="186" y="318" type="curve" smooth="yes"/>
      <point x="186" y="364"/>
      <point x="201" y="383"/>
      <point x="224" y="383" type="curve" smooth="yes"/>
      <point x="245" y="383"/>
      <point x="262" y="367"/>
      <point x="262" y="318" type="curve" smooth="yes"/>
      <point x="262" y="270"/>
      <point x="240" y="220"/>
      <point x="203" y="165" type="curve" smooth="yes"/>
      <point x="112" y="31" type="line" smooth="yes"/>
      <point x="55" y="-54"/>
      <point x="43" y="-100"/>
      <point x="43" y="-143" type="curve" smooth="yes"/>
      <point x="43" y="-206"/>
      <point x="84" y="-240"/>
      <point x="143" y="-240" type="curve" smooth="yes"/>
      <point x="414" y="-240" type="line"/>
      <point x="414" y="-105" type="line"/>
    </contour>
  </outline>
</glyph>
<glyph name="uni057C" format="2">
  <advance width="550"/>
  <unicode hex="057C"/>
  <note>
uni057C
</note>
  <outline>
    <contour>
      <point x="453" y="135" type="line"/>
      <point x="479" y="189"/>
      <point x="495" y="242"/>
      <point x="495" y="315" type="curve" smooth="yes"/>
      <point x="495" y="440"/>
      <point x="425" y="518"/>
      <point x="320" y="518" type="curve" smooth="yes"/>
      <point x="264" y="518"/>
      <point x="221" y="497"/>
      <point x="198" y="461" type="curve"/>
      <point x="195" y="461" type="line"/>
      <point x="178" y="507" type="line"/>
      <point x="50" y="507" type="line"/>
      <point x="50" y="0" type="line"/>
      <point x="212" y="0" type="line"/>
      <point x="212" y="216" type="line" smooth="yes"/>
      <point x="212" y="324"/>
      <point x="233" y="373"/>
      <point x="275" y="373" type="curve" smooth="yes"/>
      <point x="312" y="373"/>
      <point x="333" y="343"/>
      <point x="333" y="272" type="curve" smooth="yes"/>
      <point x="333" y="225"/>
      <point x="321" y="163"/>
      <point x="300" y="106" type="curve"/>
      <point x="300" y="0" type="line"/>
      <point x="545" y="0" type="line"/>
      <point x="545" y="135" type="line"/>
    </contour>
  </outline>
</glyph>
<glyph name="uni057D" format="2">
  <advance width="529"/>
  <unicode hex="057D"/>
  <note>
uni057D
</note>
  <outline>
    <contour>
      <point x="479" y="508" type="line"/>
      <point x="317" y="508" type="line"/>
      <point x="317" y="292" type="line" smooth="yes"/>
      <point x="317" y="184"/>
      <point x="296" y="135"/>
      <point x="254" y="135" type="curve" smooth="yes"/>
      <point x="224" y="135"/>
      <point x="211" y="163"/>
      <point x="211" y="209" type="curve" smooth="yes"/>
      <point x="211" y="508" type="line"/>
      <point x="49" y="508" type="line"/>
      <point x="49" y="172" type="line" smooth="yes"/>
      <point x="49" y="54"/>
      <point x="107" y="-10"/>
      <point x="209" y="-10" type="curve" smooth="yes"/>
      <point x="265" y="-10"/>
      <point x="308" y="11"/>
      <point x="331" y="47" type="curve"/>
      <point x="334" y="47" type="line"/>
      <point x="351" y="0" type="line"/>
      <point x="479" y="0" type="line"/>
    </contour>
  </outline>
</glyph>
<glyph name="uni057E" format="2">
  <advance width="533"/>
  <unicode hex="057E"/>
  <note>
uni057E
</note>
  <outline>
    <contour>
      <point x="479" y="-105" type="line"/>
      <point x="479" y="760" type="line"/>
      <point x="317" y="760" type="line"/>
      <point x="317" y="292" type="line" smooth="yes"/>
      <point x="317" y="184"/>
      <point x="296" y="135"/>
      <point x="254" y="135" type="curve" smooth="yes"/>
      <point x="224" y="135"/>
      <point x="211" y="163"/>
      <point x="211" y="213" type="curve" smooth="yes"/>
      <point x="211" y="508" type="line"/>
      <point x="49" y="508" type="line"/>
      <point x="49" y="172" type="line" smooth="yes"/>
      <point x="49" y="54"/>
      <point x="107" y="-10"/>
      <point x="196" y="-10" type="curve" smooth="yes"/>
      <point x="259" y="-10"/>
      <point x="295" y="11"/>
      <point x="318" y="47" type="curve"/>
      <point x="321" y="47" type="line"/>
      <point x="319" y="25"/>
      <point x="317" y="2"/>
      <point x="317" y="-20" type="curve" smooth="yes"/>
      <point x="317" y="-240" type="line"/>
      <point x="585" y="-240" type="line"/>
      <point x="585" y="-105" type="line"/>
    </contour>
  </outline>
</glyph>
<glyph name="uni057F" format="2">
  <advance width="797"/>
  <unicode hex="057F"/>
  <note>
uni057F
</note>
  <outline>
    <contour>
      <point x="588" y="518" type="curve" smooth="yes"/>
      <point x="532" y="518"/>
      <point x="489" y="497"/>
      <point x="466" y="461" type="curve"/>
      <point x="463" y="461" type="line"/>
      <point x="446" y="508" type="line"/>
      <point x="317" y="508" type="line"/>
      <point x="317" y="292" type="line" smooth="yes"/>
      <point x="317" y="184"/>
      <point x="296" y="135"/>
      <point x="254" y="135" type="curve" smooth="yes"/>
      <point x="224" y="135"/>
      <point x="211" y="163"/>
      <point x="211" y="213" type="curve" smooth="yes"/>
      <point x="211" y="508" type="line"/>
      <point x="49" y="508" type="line"/>
      <point x="49" y="172" type="line" smooth="yes"/>
      <point x="49" y="54"/>
      <point x="107" y="-10"/>
      <point x="209" y="-10" type="curve" smooth="yes"/>
      <point x="265" y="-10"/>
      <point x="308" y="11"/>
      <point x="331" y="47" type="curve"/>
      <point x="334" y="47" type="line"/>
      <point x="351" y="0" type="line"/>
      <point x="480" y="0" type="line"/>
      <point x="480" y="216" type="line" smooth="yes"/>
      <point x="480" y="324"/>
      <point x="501" y="373"/>
      <point x="543" y="373" type="curve" smooth="yes"/>
      <point x="573" y="373"/>
      <point x="586" y="345"/>
      <point x="586" y="295" type="curve" smooth="yes"/>
      <point x="586" y="0" type="line"/>
      <point x="748" y="0" type="line"/>
      <point x="748" y="336" type="line" smooth="yes"/>
      <point x="748" y="454"/>
      <point x="690" y="518"/>
    </contour>
  </outline>
</glyph>
<glyph name="uni0581" format="2">
  <advance width="524"/>
  <unicode hex="0581"/>
  <note>
uni0581
</note>
  <outline>
    <contour>
      <point x="219" y="-250" type="curve" smooth="yes"/>
      <point x="398" y="-250"/>
      <point x="474" y="-147"/>
      <point x="474" y="39" type="curve" smooth="yes"/>
      <point x="474" y="507" type="line"/>
      <point x="334" y="507" type="line"/>
      <point x="321" y="438" type="line"/>
      <point x="312" y="438" type="line"/>
      <point x="281" y="498"/>
      <point x="249" y="517"/>
      <point x="197" y="517" type="curve" smooth="yes"/>
      <point x="93" y="517"/>
      <point x="32" y="412"/>
      <point x="32" y="250" type="curve" smooth="yes"/>
      <point x="32" y="88"/>
      <point x="93" y="-10"/>
      <point x="192" y="-10" type="curve" smooth="yes"/>
      <point x="243" y="-10"/>
      <point x="282" y="14"/>
      <point x="312" y="71" type="curve"/>
      <point x="317" y="71" type="line"/>
      <point x="315" y="46"/>
      <point x="312" y="11"/>
      <point x="312" y="-10" type="curve" smooth="yes"/>
      <point x="312" y="-24" type="line" smooth="yes"/>
      <point x="312" y="-91"/>
      <point x="273" y="-115"/>
      <point x="214" y="-115" type="curve" smooth="yes"/>
      <point x="165" y="-115"/>
      <point x="115" y="-103"/>
      <point x="56" y="-72" type="curve"/>
      <point x="56" y="-208" type="line"/>
      <point x="103" y="-236"/>
      <point x="154" y="-250"/>
    </contour>
    <contour>
      <point x="251" y="125" type="curve" smooth="yes"/>
      <point x="215" y="125"/>
      <point x="196" y="158"/>
      <point x="196" y="248" type="curve" smooth="yes"/>
      <point x="196" y="344"/>
      <point x="216" y="382"/>
      <point x="250" y="382" type="curve" smooth="yes"/>
      <point x="294" y="382"/>
      <point x="312" y="353"/>
      <point x="312" y="264" type="curve" smooth="yes"/>
      <point x="312" y="244" type="line" smooth="yes"/>
      <point x="312" y="156"/>
      <point x="294" y="125"/>
    </contour>
  </outline>
</glyph>
<glyph name="uni0582" format="2">
  <advance width="331"/>
  <unicode hex="0582"/>
  <note>
uni0582
</note>
  <outline>
    <contour>
      <point x="50" y="0" type="line"/>
      <point x="326" y="0" type="line"/>
      <point x="326" y="135" type="line"/>
      <point x="220" y="135" type="line"/>
      <point x="220" y="508" type="line"/>
      <point x="50" y="508" type="line"/>
    </contour>
  </outline>
</glyph>
<glyph name="uni0583" format="2">
  <advance width="796"/>
  <unicode hex="0583"/>
  <note>
uni0583
</note>
  <outline>
    <contour>
      <point x="602" y="518" type="curve" smooth="yes"/>
      <point x="541" y="518"/>
      <point x="507" y="501"/>
      <point x="486" y="471" type="curve"/>
      <point x="482" y="471" type="line"/>
      <point x="485" y="495"/>
      <point x="487" y="520"/>
      <point x="487" y="544" type="curve" smooth="yes"/>
      <point x="487" y="760" type="line"/>
      <point x="317" y="760" type="line"/>
      <point x="317" y="292" type="line" smooth="yes"/>
      <point x="317" y="184"/>
      <point x="296" y="135"/>
      <point x="254" y="135" type="curve" smooth="yes"/>
      <point x="224" y="135"/>
      <point x="211" y="163"/>
      <point x="211" y="213" type="curve" smooth="yes"/>
      <point x="211" y="508" type="line"/>
      <point x="49" y="508" type="line"/>
      <point x="49" y="172" type="line" smooth="yes"/>
      <point x="49" y="54"/>
      <point x="107" y="-10"/>
      <point x="209" y="-10" type="curve" smooth="yes"/>
      <point x="255" y="-10"/>
      <point x="295" y="11"/>
      <point x="318" y="47" type="curve"/>
      <point x="321" y="47" type="line"/>
      <point x="320" y="25"/>
      <point x="317" y="2"/>
      <point x="317" y="-20" type="curve" smooth="yes"/>
      <point x="317" y="-240" type="line"/>
      <point x="479" y="-240" type="line"/>
      <point x="479" y="216" type="line" smooth="yes"/>
      <point x="479" y="324"/>
      <point x="500" y="373"/>
      <point x="542" y="373" type="curve" smooth="yes"/>
      <point x="572" y="373"/>
      <point x="585" y="345"/>
      <point x="585" y="295" type="curve" smooth="yes"/>
      <point x="585" y="0" type="line"/>
      <point x="747" y="0" type="line"/>
      <point x="747" y="336" type="line" smooth="yes"/>
      <point x="747" y="454"/>
      <point x="689" y="518"/>
    </contour>
  </outline>
</glyph>
<glyph name="uni0584" format="2">
  <advance width="524"/>
  <unicode hex="0584"/>
  <note>
uni0584
</note>
  <outline>
    <contour>
      <point x="50" y="-240" type="line"/>
      <point x="212" y="-240" type="line"/>
      <point x="212" y="-185" type="line"/>
      <point x="482" y="-185" type="line"/>
      <point x="482" y="-50" type="line"/>
      <point x="212" y="-50" type="line"/>
      <point x="212" y="-35" type="line" smooth="yes"/>
      <point x="212" y="-14"/>
      <point x="210" y="21"/>
      <point x="207" y="71" type="curve"/>
      <point x="212" y="71" type="line"/>
      <point x="242" y="14"/>
      <point x="281" y="-10"/>
      <point x="332" y="-10" type="curve" smooth="yes"/>
      <point x="431" y="-10"/>
      <point x="492" y="88"/>
      <point x="492" y="250" type="curve" smooth="yes"/>
      <point x="492" y="412"/>
      <point x="431" y="517"/>
      <point x="327" y="517" type="curve" smooth="yes"/>
      <point x="275" y="517"/>
      <point x="243" y="498"/>
      <point x="212" y="438" type="curve"/>
      <point x="203" y="438" type="line"/>
      <point x="190" y="507" type="line"/>
      <point x="50" y="507" type="line"/>
      <point x="50" y="-50" type="line"/>
      <point x="0" y="-50" type="line"/>
      <point x="0" y="-185" type="line"/>
      <point x="50" y="-185" type="line"/>
    </contour>
    <contour>
      <point x="273" y="125" type="curve" smooth="yes"/>
      <point x="230" y="125"/>
      <point x="212" y="156"/>
      <point x="212" y="244" type="curve" smooth="yes"/>
      <point x="212" y="264" type="line" smooth="yes"/>
      <point x="212" y="353"/>
      <point x="230" y="382"/>
      <point x="274" y="382" type="curve" smooth="yes"/>
      <point x="308" y="382"/>
      <point x="328" y="344"/>
      <point x="328" y="248" type="curve" smooth="yes"/>
      <point x="328" y="158"/>
      <point x="309" y="125"/>
    </contour>
  </outline>
</glyph>
<glyph name="uni0585" format="2">
  <advance width="516"/>
  <unicode hex="0585"/>
  <note>
uni0585
</note>
  <anchor x="258" y="492" name="top"/>
  <outline>
    <contour>
      <point x="262" y="-10" type="curve" smooth="yes"/>
      <point x="393" y="-10"/>
      <point x="484" y="81"/>
      <point x="484" y="253" type="curve" smooth="yes"/>
      <point x="484" y="424"/>
      <point x="389" y="518"/>
      <point x="257" y="518" type="curve" smooth="yes"/>
      <point x="126" y="518"/>
      <point x="32" y="424"/>
      <point x="32" y="253" type="curve" smooth="yes"/>
      <point x="32" y="82"/>
      <point x="127" y="-10"/>
    </contour>
    <contour>
      <point x="259" y="130" type="curve" smooth="yes"/>
      <point x="222" y="130"/>
      <point x="202" y="169"/>
      <point x="202" y="255" type="curve" smooth="yes"/>
      <point x="202" y="342"/>
      <point x="220" y="378"/>
      <point x="257" y="378" type="curve" smooth="yes"/>
      <point x="295" y="378"/>
      <point x="313" y="341"/>
      <point x="313" y="255" type="curve" smooth="yes"/>
      <point x="313" y="169"/>
      <point x="294" y="130"/>
    </contour>
  </outline>
</glyph>
<glyph name="uni0586" format="2">
  <advance width="699"/>
  <unicode hex="0586"/>
  <note>
uni0586
</note>
  <outline>
    <contour>
      <point x="420" y="422" type="curve"/>
      <point x="420" y="714" type="line"/>
      <point x="337" y="714" type="line" smooth="yes"/>
      <point x="135" y="714"/>
      <point x="28" y="635"/>
      <point x="28" y="497" type="curve" smooth="yes"/>
      <point x="28" y="373"/>
      <point x="104" y="311"/>
      <point x="264" y="295" type="curve"/>
      <point x="264" y="126" type="line"/>
      <point x="214" y="131"/>
      <point x="123" y="163"/>
      <point x="24" y="212" type="curve"/>
      <point x="24" y="62" type="line"/>
      <point x="91" y="30"/>
      <point x="186" y="2"/>
      <point x="264" y="-9" type="curve"/>
      <point x="264" y="-243" type="line"/>
      <point x="420" y="-243" type="line"/>
      <point x="420" y="-9" type="line"/>
      <point x="574" y="4"/>
      <point x="669" y="83"/>
      <point x="669" y="219" type="curve" smooth="yes"/>
      <point x="669" y="349"/>
      <point x="590" y="417"/>
    </contour>
    <contour>
      <point x="190" y="504" type="curve"/>
      <point x="190" y="552"/>
      <point x="222" y="576"/>
      <point x="264" y="579" type="curve"/>
      <point x="264" y="430" type="line"/>
      <point x="214" y="434"/>
      <point x="190" y="461"/>
    </contour>
    <contour>
      <point x="420" y="126" type="curve"/>
      <point x="420" y="287" type="line"/>
      <point x="471" y="284"/>
      <point x="507" y="263"/>
      <point x="507" y="210" type="curve" smooth="yes"/>
      <point x="507" y="155"/>
      <point x="485" y="129"/>
    </contour>
  </outline>
</glyph>
<glyph name="uni0587" format="2">
  <advance width="590"/>
  <unicode hex="0587"/>
  <note>
uni0587
</note>
  <outline>
    <contour>
      <point x="209" y="-10" type="curve" smooth="yes"/>
      <point x="265" y="-10"/>
      <point x="308" y="11"/>
      <point x="331" y="47" type="curve"/>
      <point x="334" y="47" type="line"/>
      <point x="351" y="0" type="line"/>
      <point x="585" y="0" type="line"/>
      <point x="585" y="135" type="line"/>
      <point x="479" y="135" type="line"/>
      <point x="479" y="508" type="line"/>
      <point x="317" y="508" type="line"/>
      <point x="317" y="292" type="line" smooth="yes"/>
      <point x="317" y="184"/>
      <point x="296" y="135"/>
      <point x="254" y="135" type="curve" smooth="yes"/>
      <point x="224" y="135"/>
      <point x="211" y="163"/>
      <point x="211" y="213" type="curve" smooth="yes"/>
      <point x="211" y="760" type="line"/>
      <point x="49" y="760" type="line"/>
      <point x="49" y="172" type="line" smooth="yes"/>
      <point x="49" y="54"/>
      <point x="107" y="-10"/>
    </contour>
  </outline>
</glyph>
<glyph name="uni0588" format="2">
  <advance width="383"/>
  <unicode hex="0588"/>
  <note>
uni0575
</note>
  <outline>
    <contour>
      <point x="110" y="215" type="line"/>
      <point x="272" y="215" type="line"/>
      <point x="272" y="508" type="line"/>
      <point x="110" y="508" type="line"/>
    </contour>
    <contour>
      <point x="110" y="215" type="line"/>
      <point x="110" y="139"/>
      <point x="114" y="110"/>
      <point x="126" y="65" type="curve" smooth="yes"/>
      <point x="138" y="20"/>
      <point x="146" y="-10"/>
      <point x="146" y="-41" type="curve" smooth="yes"/>
      <point x="146" y="-81"/>
      <point x="125" y="-105"/>
      <point x="91" y="-105" type="curve" smooth="yes"/>
      <point x="68" y="-105" type="line"/>
      <point x="68" y="-240" type="line"/>
      <point x="122" y="-240" type="line" smooth="yes"/>
      <point x="246" y="-240"/>
      <point x="308" y="-170"/>
      <point x="308" y="-70" type="curve" smooth="yes"/>
      <point x="308" y="-11"/>
      <point x="300" y="22"/>
      <point x="288" y="67" type="curve" smooth="yes"/>
      <point x="276" y="111"/>
      <point x="272" y="139"/>
      <point x="272" y="215" type="curve"/>
    </contour>
    <contour>
      <point x="10" y="187" type="line"/>
      <point x="10" y="52" type="line"/>
      <point x="373" y="52" type="line"/>
      <point x="373" y="187" type="line"/>
    </contour>
  </outline>
</glyph>
<glyph name="uni0589" format="2">
  <advance width="280"/>
  <unicode hex="0589"/>
  <note>
uni0589
</note>
  <outline>
    <contour>
      <point x="49" y="81" type="curve" smooth="yes"/>
      <point x="49" y="22"/>
      <point x="84" y="-12"/>
      <point x="142" y="-12" type="curve" smooth="yes"/>
      <point x="198" y="-12"/>
      <point x="231" y="22"/>
      <point x="231" y="81" type="curve" smooth="yes"/>
      <point x="231" y="141"/>
      <point x="200" y="175"/>
      <point x="142" y="175" type="curve" smooth="yes"/>
      <point x="81" y="175"/>
      <point x="49" y="141"/>
    </contour>
    <contour>
      <point x="49" y="424" type="curve" smooth="yes"/>
      <point x="49" y="365"/>
      <point x="84" y="331"/>
      <point x="142" y="331" type="curve" smooth="yes"/>
      <point x="198" y="331"/>
      <point x="231" y="365"/>
      <point x="231" y="424" type="curve" smooth="yes"/>
      <point x="231" y="484"/>
      <point x="200" y="518"/>
      <point x="142" y="518" type="curve" smooth="yes"/>
      <point x="81" y="518"/>
      <point x="49" y="484"/>
    </contour>
  </outline>
</glyph>
<glyph name="uni058A" format="2">
  <advance width="405"/>
  <unicode hex="058A"/>
  <note>
uni058A
</note>
  <outline>
    <contour>
      <point x="190" y="182" type="curve" smooth="yes"/>
      <point x="236" y="182"/>
      <point x="321" y="202"/>
      <point x="369" y="227" type="curve"/>
      <point x="369" y="338" type="line"/>
      <point x="314" y="324"/>
      <point x="267" y="317"/>
      <point x="230" y="317" type="curve" smooth="yes"/>
      <point x="190" y="317"/>
      <point x="178" y="330"/>
      <point x="178" y="375" type="curve"/>
      <point x="36" y="375" type="line"/>
      <point x="36" y="231"/>
      <point x="77" y="182"/>
    </contour>
  </outline>
</glyph>
<glyph name="uni058D" format="2">
  <advance width="818"/>
  <unicode hex="058D"/>
  <outline>
    <contour>
      <point x="409" y="-10" type="curve" smooth="yes"/>
      <point x="462" y="-10"/>
      <point x="509" y="8"/>
      <point x="547" y="40" type="curve"/>
      <point x="655" y="51"/>
      <point x="729" y="128"/>
      <point x="734" y="227" type="curve"/>
      <point x="767" y="265"/>
      <point x="784" y="310"/>
      <point x="784" y="357" type="curve" smooth="yes"/>
      <point x="784" y="407"/>
      <point x="764" y="453"/>
      <point x="733" y="488" type="curve"/>
      <point x="729" y="588"/>
      <point x="651" y="664"/>
      <point x="547" y="673" type="curve"/>
      <point x="511" y="706"/>
      <point x="460" y="724"/>
      <point x="409" y="724" type="curve" smooth="yes"/>
      <point x="358" y="724"/>
      <point x="310" y="706"/>
      <point x="273" y="674" type="curve"/>
      <point x="165" y="663"/>
      <point x="89" y="587"/>
      <point x="84" y="487" type="curve"/>
      <point x="51" y="448"/>
      <point x="34" y="403"/>
      <point x="34" y="357" type="curve" smooth="yes"/>
      <point x="34" y="307"/>
      <point x="54" y="261"/>
      <point x="86" y="226" type="curve"/>
      <point x="90" y="128"/>
      <point x="165" y="50"/>
      <point x="270" y="41" type="curve"/>
      <point x="308" y="8"/>
      <point x="359" y="-10"/>
    </contour>
    <contour>
      <point x="601" y="114" type="curve"/>
      <point x="610" y="137"/>
      <point x="615" y="162"/>
      <point x="615" y="187" type="curve" smooth="yes"/>
      <point x="615" y="271"/>
      <point x="560" y="341"/>
      <point x="484" y="372" type="curve"/>
      <point x="498" y="377"/>
      <point x="513" y="379"/>
      <point x="527" y="379" type="curve" smooth="yes"/>
      <point x="600" y="379"/>
      <point x="663" y="315"/>
      <point x="663" y="235" type="curve" smooth="yes"/>
      <point x="663" y="183"/>
      <point x="635" y="135"/>
    </contour>
    <contour>
      <point x="409" y="44" type="curve" smooth="yes"/>
      <point x="394" y="44"/>
      <point x="380" y="46"/>
      <point x="364" y="52" type="curve"/>
      <point x="447" y="82"/>
      <point x="494" y="157"/>
      <point x="494" y="236" type="curve" smooth="yes"/>
      <point x="494" y="262"/>
      <point x="490" y="287"/>
      <point x="480" y="311" type="curve"/>
      <point x="518" y="284"/>
      <point x="543" y="238"/>
      <point x="543" y="187" type="curve" smooth="yes"/>
      <point x="543" y="108"/>
      <point x="484" y="44"/>
    </contour>
    <contour>
      <point x="715" y="326" type="curve"/>
      <point x="677" y="398"/>
      <point x="605" y="435"/>
      <point x="531" y="435" type="curve" smooth="yes"/>
      <point x="507" y="435"/>
      <point x="483" y="432"/>
      <point x="459" y="425" type="curve"/>
      <point x="483" y="469"/>
      <point x="527" y="497"/>
      <point x="579" y="497" type="curve" smooth="yes"/>
      <point x="654" y="497"/>
      <point x="714" y="436"/>
      <point x="714" y="357" type="curve" smooth="yes"/>
      <point x="714" y="348"/>
      <point x="714" y="337"/>
    </contour>
    <contour>
      <point x="288" y="94" type="curve" smooth="yes"/>
      <point x="242" y="94"/>
      <point x="193" y="124"/>
      <point x="170" y="168" type="curve"/>
      <point x="192" y="162"/>
      <point x="216" y="158"/>
      <point x="240" y="158" type="curve" smooth="yes"/>
      <point x="319" y="158"/>
      <point x="389" y="202"/>
      <point x="425" y="266" type="curve"/>
      <point x="424" y="257"/>
      <point x="424" y="248"/>
      <point x="424" y="239" type="curve" smooth="yes"/>
      <point x="424" y="158"/>
      <point x="359" y="94"/>
    </contour>
    <contour>
      <point x="394" y="448" type="curve"/>
      <point x="394" y="457"/>
      <point x="394" y="466"/>
      <point x="394" y="475" type="curve" smooth="yes"/>
      <point x="394" y="556"/>
      <point x="460" y="620"/>
      <point x="531" y="620" type="curve" smooth="yes"/>
      <point x="577" y="620"/>
      <point x="627" y="588"/>
      <point x="650" y="546" type="curve"/>
      <point x="627" y="552"/>
      <point x="603" y="556"/>
      <point x="579" y="556" type="curve" smooth="yes"/>
      <point x="500" y="556"/>
      <point x="430" y="512"/>
    </contour>
    <contour>
      <point x="239" y="217" type="curve" smooth="yes"/>
      <point x="164" y="217"/>
      <point x="104" y="278"/>
      <point x="104" y="357" type="curve" smooth="yes"/>
      <point x="104" y="366"/>
      <point x="103" y="377"/>
      <point x="103" y="388" type="curve"/>
      <point x="142" y="316"/>
      <point x="213" y="279"/>
      <point x="287" y="279" type="curve" smooth="yes"/>
      <point x="311" y="279"/>
      <point x="335" y="282"/>
      <point x="359" y="289" type="curve"/>
      <point x="335" y="245"/>
      <point x="291" y="217"/>
    </contour>
    <contour>
      <point x="339" y="403" type="curve"/>
      <point x="300" y="430"/>
      <point x="276" y="476"/>
      <point x="276" y="527" type="curve" smooth="yes"/>
      <point x="276" y="606"/>
      <point x="334" y="670"/>
      <point x="409" y="670" type="curve" smooth="yes"/>
      <point x="425" y="670"/>
      <point x="440" y="668"/>
      <point x="455" y="662" type="curve"/>
      <point x="372" y="632"/>
      <point x="324" y="557"/>
      <point x="324" y="478" type="curve" smooth="yes"/>
      <point x="324" y="452"/>
      <point x="329" y="427"/>
    </contour>
    <contour>
      <point x="291" y="335" type="curve" smooth="yes"/>
      <point x="219" y="335"/>
      <point x="155" y="399"/>
      <point x="155" y="479" type="curve" smooth="yes"/>
      <point x="155" y="526"/>
      <point x="176" y="572"/>
      <point x="218" y="602" type="curve"/>
      <point x="209" y="579"/>
      <point x="203" y="554"/>
      <point x="203" y="527" type="curve" smooth="yes"/>
      <point x="203" y="443"/>
      <point x="259" y="373"/>
      <point x="334" y="342" type="curve"/>
      <point x="320" y="337"/>
      <point x="305" y="335"/>
    </contour>
  </outline>
</glyph>
<glyph name="uni058E" format="2">
  <advance width="818"/>
  <unicode hex="058E"/>
  <outline>
    <contour>
      <point x="409" y="-10" type="curve" smooth="yes"/>
      <point x="459" y="-10"/>
      <point x="511" y="8"/>
      <point x="548" y="41" type="curve"/>
      <point x="654" y="50"/>
      <point x="728" y="128"/>
      <point x="733" y="226" type="curve"/>
      <point x="764" y="261"/>
      <point x="784" y="307"/>
      <point x="784" y="357" type="curve" smooth="yes"/>
      <point x="784" y="403"/>
      <point x="767" y="448"/>
      <point x="734" y="487" type="curve"/>
      <point x="729" y="587"/>
      <point x="654" y="663"/>
      <point x="546" y="674" type="curve"/>
      <point x="509" y="706"/>
      <point x="461" y="724"/>
      <point x="409" y="724" type="curve" smooth="yes"/>
      <point x="358" y="724"/>
      <point x="308" y="706"/>
      <point x="271" y="673" type="curve"/>
      <point x="168" y="664"/>
      <point x="90" y="588"/>
      <point x="86" y="488" type="curve"/>
      <point x="54" y="453"/>
      <point x="34" y="407"/>
      <point x="34" y="357" type="curve" smooth="yes"/>
      <point x="34" y="310"/>
      <point x="51" y="265"/>
      <point x="84" y="227" type="curve"/>
      <point x="89" y="128"/>
      <point x="163" y="51"/>
      <point x="271" y="40" type="curve"/>
      <point x="309" y="8"/>
      <point x="357" y="-10"/>
    </contour>
    <contour>
      <point x="218" y="114" type="curve"/>
      <point x="184" y="135"/>
      <point x="155" y="183"/>
      <point x="155" y="235" type="curve" smooth="yes"/>
      <point x="155" y="315"/>
      <point x="219" y="379"/>
      <point x="291" y="379" type="curve" smooth="yes"/>
      <point x="305" y="379"/>
      <point x="320" y="377"/>
      <point x="334" y="372" type="curve"/>
      <point x="259" y="341"/>
      <point x="203" y="271"/>
      <point x="203" y="187" type="curve" smooth="yes"/>
      <point x="203" y="162"/>
      <point x="209" y="137"/>
    </contour>
    <contour>
      <point x="409" y="44" type="curve" smooth="yes"/>
      <point x="334" y="44"/>
      <point x="276" y="108"/>
      <point x="276" y="187" type="curve" smooth="yes"/>
      <point x="276" y="238"/>
      <point x="300" y="284"/>
      <point x="339" y="311" type="curve"/>
      <point x="329" y="287"/>
      <point x="324" y="262"/>
      <point x="324" y="236" type="curve" smooth="yes"/>
      <point x="324" y="157"/>
      <point x="372" y="82"/>
      <point x="455" y="52" type="curve"/>
      <point x="439" y="46"/>
      <point x="425" y="44"/>
    </contour>
    <contour>
      <point x="104" y="326" type="curve"/>
      <point x="104" y="337"/>
      <point x="105" y="348"/>
      <point x="105" y="357" type="curve" smooth="yes"/>
      <point x="105" y="436"/>
      <point x="165" y="497"/>
      <point x="240" y="497" type="curve" smooth="yes"/>
      <point x="292" y="497"/>
      <point x="335" y="469"/>
      <point x="360" y="425" type="curve"/>
      <point x="336" y="432"/>
      <point x="312" y="435"/>
      <point x="287" y="435" type="curve" smooth="yes"/>
      <point x="214" y="435"/>
      <point x="142" y="398"/>
    </contour>
    <contour>
      <point x="531" y="94" type="curve" smooth="yes"/>
      <point x="460" y="94"/>
      <point x="394" y="158"/>
      <point x="394" y="239" type="curve" smooth="yes"/>
      <point x="394" y="248"/>
      <point x="394" y="257"/>
      <point x="394" y="266" type="curve"/>
      <point x="430" y="202"/>
      <point x="500" y="158"/>
      <point x="579" y="158" type="curve" smooth="yes"/>
      <point x="603" y="158"/>
      <point x="627" y="162"/>
      <point x="649" y="168" type="curve"/>
      <point x="626" y="124"/>
      <point x="576" y="94"/>
    </contour>
    <contour>
      <point x="424" y="448" type="curve"/>
      <point x="388" y="512"/>
      <point x="318" y="556"/>
      <point x="239" y="556" type="curve" smooth="yes"/>
      <point x="215" y="556"/>
      <point x="191" y="552"/>
      <point x="168" y="546" type="curve"/>
      <point x="191" y="588"/>
      <point x="241" y="620"/>
      <point x="287" y="620" type="curve" smooth="yes"/>
      <point x="358" y="620"/>
      <point x="424" y="556"/>
      <point x="424" y="475" type="curve" smooth="yes"/>
      <point x="424" y="466"/>
      <point x="424" y="457"/>
    </contour>
    <contour>
      <point x="579" y="217" type="curve" smooth="yes"/>
      <point x="527" y="217"/>
      <point x="483" y="245"/>
      <point x="459" y="289" type="curve"/>
      <point x="483" y="282"/>
      <point x="507" y="279"/>
      <point x="531" y="279" type="curve" smooth="yes"/>
      <point x="605" y="279"/>
      <point x="676" y="316"/>
      <point x="715" y="388" type="curve"/>
      <point x="715" y="377"/>
      <point x="714" y="366"/>
      <point x="714" y="357" type="curve" smooth="yes"/>
      <point x="714" y="278"/>
      <point x="654" y="217"/>
    </contour>
    <contour>
      <point x="480" y="403" type="curve"/>
      <point x="490" y="427"/>
      <point x="494" y="452"/>
      <point x="494" y="478" type="curve" smooth="yes"/>
      <point x="494" y="557"/>
      <point x="447" y="632"/>
      <point x="364" y="662" type="curve"/>
      <point x="378" y="668"/>
      <point x="393" y="670"/>
      <point x="409" y="670" type="curve" smooth="yes"/>
      <point x="484" y="670"/>
      <point x="543" y="606"/>
      <point x="543" y="527" type="curve" smooth="yes"/>
      <point x="543" y="476"/>
      <point x="518" y="430"/>
    </contour>
    <contour>
      <point x="527" y="335" type="curve" smooth="yes"/>
      <point x="513" y="335"/>
      <point x="498" y="337"/>
      <point x="484" y="342" type="curve"/>
      <point x="560" y="373"/>
      <point x="615" y="443"/>
      <point x="615" y="527" type="curve" smooth="yes"/>
      <point x="615" y="554"/>
      <point x="610" y="579"/>
      <point x="600" y="602" type="curve"/>
      <point x="642" y="572"/>
      <point x="663" y="526"/>
      <point x="663" y="479" type="curve" smooth="yes"/>
      <point x="663" y="399"/>
      <point x="600" y="335"/>
    </contour>
  </outline>
</glyph>
<glyph name="uni058F" format="2">
  <advance width="657"/>
  <unicode hex="058F"/>
  <note>
uni058F
</note>
  <outline>
    <contour>
      <point x="549" y="0" type="line"/>
      <point x="549" y="476" type="line" smooth="yes"/>
      <point x="549" y="642"/>
      <point x="459" y="724"/>
      <point x="295" y="724" type="curve" smooth="yes"/>
      <point x="127" y="724"/>
      <point x="36" y="626"/>
      <point x="36" y="427" type="curve"/>
      <point x="206" y="427" type="line"/>
      <point x="206" y="551"/>
      <point x="233" y="579"/>
      <point x="293" y="579" type="curve" smooth="yes"/>
      <point x="350" y="579"/>
      <point x="379" y="550"/>
      <point x="379" y="468" type="curve" smooth="yes"/>
      <point x="379" y="0" type="line"/>
    </contour>
    <contour>
      <point x="278" y="441" type="line"/>
      <point x="278" y="328" type="line"/>
      <point x="652" y="328" type="line"/>
      <point x="652" y="441" type="line"/>
    </contour>
    <contour>
      <point x="278" y="282" type="line"/>
      <point x="278" y="168" type="line"/>
      <point x="652" y="168" type="line"/>
      <point x="652" y="282" type="line"/>
    </contour>
  </outline>
</glyph>
<glyph name="uniFB13" format="2">
  <advance width="1062"/>
  <unicode hex="FB13"/>
  <note>
uniFB13
</note>
  <outline>
    <contour>
      <point x="479" y="387" type="line" smooth="yes"/>
      <point x="479" y="455"/>
      <point x="467" y="490"/>
      <point x="443" y="517" type="curve" smooth="yes"/>
      <point x="412" y="553"/>
      <point x="401" y="572"/>
      <point x="401" y="594" type="curve" smooth="yes"/>
      <point x="401" y="612"/>
      <point x="408" y="625"/>
      <point x="427" y="625" type="curve" smooth="yes"/>
      <point x="606" y="625" type="line"/>
      <point x="606" y="760" type="line"/>
      <point x="418" y="760" type="line" smooth="yes"/>
      <point x="324" y="760"/>
      <point x="239" y="715"/>
      <point x="239" y="590" type="curve" smooth="yes"/>
      <point x="239" y="547"/>
      <point x="251" y="516"/>
      <point x="284" y="472" type="curve" smooth="yes"/>
      <point x="307" y="442"/>
      <point x="317" y="417"/>
      <point x="317" y="376" type="curve" smooth="yes"/>
      <point x="317" y="292" type="line" smooth="yes"/>
      <point x="317" y="184"/>
      <point x="296" y="135"/>
      <point x="254" y="135" type="curve" smooth="yes"/>
      <point x="224" y="135"/>
      <point x="211" y="163"/>
      <point x="211" y="213" type="curve" smooth="yes"/>
      <point x="211" y="508" type="line"/>
      <point x="49" y="508" type="line"/>
      <point x="49" y="172" type="line" smooth="yes"/>
      <point x="49" y="54"/>
      <point x="107" y="-10"/>
      <point x="209" y="-10" type="curve" smooth="yes"/>
      <point x="265" y="-10"/>
      <point x="308" y="11"/>
      <point x="331" y="47" type="curve"/>
      <point x="334" y="47" type="line"/>
      <point x="351" y="0" type="line"/>
      <point x="479" y="0" type="line"/>
    </contour>
    <contour>
      <point x="651" y="510" type="line"/>
      <point x="601" y="411"/>
      <point x="567" y="308"/>
      <point x="567" y="215" type="curve" smooth="yes"/>
      <point x="567" y="68"/>
      <point x="629" y="-10"/>
      <point x="729" y="-10" type="curve" smooth="yes"/>
      <point x="792" y="-10"/>
      <point x="831" y="11"/>
      <point x="864" y="47" type="curve"/>
      <point x="867" y="47" type="line"/>
      <point x="884" y="0" type="line"/>
      <point x="1012" y="0" type="line"/>
      <point x="1012" y="508" type="line"/>
      <point x="850" y="508" type="line"/>
      <point x="850" y="292" type="line" smooth="yes"/>
      <point x="850" y="165"/>
      <point x="829" y="135"/>
      <point x="787" y="135" type="curve"/>
      <point x="750" y="135"/>
      <point x="729" y="166"/>
      <point x="729" y="221" type="curve" smooth="yes"/>
      <point x="729" y="344"/>
      <point x="766" y="466"/>
      <point x="795" y="548" type="curve"/>
      <point x="795" y="563" type="line"/>
      <point x="678" y="563" type="line"/>
    </contour>
    <contour>
      <point x="795" y="563" type="line"/>
      <point x="771" y="575" type="line" smooth="yes"/>
      <point x="737" y="592"/>
      <point x="730" y="606"/>
      <point x="730" y="628" type="curve" smooth="yes"/>
      <point x="730" y="647"/>
      <point x="736" y="671"/>
      <point x="744" y="699" type="curve" smooth="yes"/>
      <point x="753" y="730" type="line"/>
      <point x="606" y="760" type="line"/>
      <point x="587" y="696" type="line" smooth="yes"/>
      <point x="580" y="673"/>
      <point x="574" y="645"/>
      <point x="574" y="615" type="curve" smooth="yes"/>
      <point x="574" y="566"/>
      <point x="588" y="543"/>
      <point x="628" y="522" type="curve" smooth="yes"/>
      <point x="651" y="510" type="line"/>
    </contour>
  </outline>
</glyph>
<glyph name="uniFB14" format="2">
  <advance width="1049"/>
  <unicode hex="FB14"/>
  <note>
uniFB14
</note>
  <outline>
    <contour>
      <point x="479" y="387" type="line" smooth="yes"/>
      <point x="479" y="455"/>
      <point x="467" y="490"/>
      <point x="443" y="517" type="curve" smooth="yes"/>
      <point x="412" y="553"/>
      <point x="401" y="572"/>
      <point x="401" y="594" type="curve" smooth="yes"/>
      <point x="401" y="612"/>
      <point x="408" y="625"/>
      <point x="427" y="625" type="curve" smooth="yes"/>
      <point x="601" y="625" type="line"/>
      <point x="601" y="760" type="line"/>
      <point x="418" y="760" type="line" smooth="yes"/>
      <point x="324" y="760"/>
      <point x="239" y="715"/>
      <point x="239" y="590" type="curve" smooth="yes"/>
      <point x="239" y="547"/>
      <point x="251" y="516"/>
      <point x="284" y="472" type="curve" smooth="yes"/>
      <point x="307" y="442"/>
      <point x="317" y="417"/>
      <point x="317" y="376" type="curve" smooth="yes"/>
      <point x="317" y="292" type="line" smooth="yes"/>
      <point x="317" y="185"/>
      <point x="296" y="136"/>
      <point x="254" y="136" type="curve" smooth="yes"/>
      <point x="224" y="136"/>
      <point x="211" y="164"/>
      <point x="211" y="213" type="curve" smooth="yes"/>
      <point x="211" y="508" type="line"/>
      <point x="49" y="508" type="line"/>
      <point x="49" y="172" type="line" smooth="yes"/>
      <point x="49" y="54"/>
      <point x="107" y="-10"/>
      <point x="209" y="-10" type="curve" smooth="yes"/>
      <point x="265" y="-10"/>
      <point x="308" y="11"/>
      <point x="331" y="47" type="curve"/>
      <point x="334" y="47" type="line"/>
      <point x="351" y="0" type="line"/>
      <point x="479" y="0" type="line"/>
    </contour>
    <contour>
      <point x="999" y="293" type="line"/>
      <point x="837" y="293" type="line"/>
      <point x="837" y="292" type="line" smooth="yes"/>
      <point x="837" y="185"/>
      <point x="816" y="136"/>
      <point x="774" y="136" type="curve" smooth="yes"/>
      <point x="744" y="136"/>
      <point x="731" y="164"/>
      <point x="731" y="213" type="curve" smooth="yes"/>
      <point x="731" y="760" type="line"/>
      <point x="569" y="760" type="line"/>
      <point x="569" y="172" type="line" smooth="yes"/>
      <point x="569" y="54"/>
      <point x="627" y="-10"/>
      <point x="729" y="-10" type="curve" smooth="yes"/>
      <point x="785" y="-10"/>
      <point x="828" y="11"/>
      <point x="851" y="47" type="curve"/>
      <point x="854" y="47" type="line"/>
      <point x="871" y="0" type="line"/>
      <point x="999" y="0" type="line"/>
    </contour>
    <contour>
      <point x="669" y="508" type="line"/>
      <point x="669" y="373" type="line"/>
      <point x="1004" y="373" type="line"/>
      <point x="1004" y="508" type="line"/>
    </contour>
  </outline>
</glyph>
<glyph name="uniFB15" format="2">
  <advance width="1048"/>
  <unicode hex="FB15"/>
  <note>
uniFB15
</note>
  <outline>
    <contour>
      <point x="479" y="387" type="line" smooth="yes"/>
      <point x="479" y="455"/>
      <point x="467" y="490"/>
      <point x="443" y="517" type="curve" smooth="yes"/>
      <point x="412" y="553"/>
      <point x="401" y="572"/>
      <point x="401" y="594" type="curve" smooth="yes"/>
      <point x="401" y="612"/>
      <point x="408" y="625"/>
      <point x="427" y="625" type="curve" smooth="yes"/>
      <point x="661" y="625" type="line"/>
      <point x="661" y="760" type="line"/>
      <point x="418" y="760" type="line" smooth="yes"/>
      <point x="324" y="760"/>
      <point x="239" y="715"/>
      <point x="239" y="590" type="curve" smooth="yes"/>
      <point x="239" y="547"/>
      <point x="251" y="516"/>
      <point x="284" y="472" type="curve" smooth="yes"/>
      <point x="307" y="442"/>
      <point x="317" y="417"/>
      <point x="317" y="376" type="curve" smooth="yes"/>
      <point x="317" y="292" type="line" smooth="yes"/>
      <point x="317" y="184"/>
      <point x="296" y="135"/>
      <point x="254" y="135" type="curve" smooth="yes"/>
      <point x="224" y="135"/>
      <point x="211" y="163"/>
      <point x="211" y="213" type="curve" smooth="yes"/>
      <point x="211" y="508" type="line"/>
      <point x="49" y="508" type="line"/>
      <point x="49" y="172" type="line" smooth="yes"/>
      <point x="49" y="54"/>
      <point x="107" y="-10"/>
      <point x="209" y="-10" type="curve" smooth="yes"/>
      <point x="265" y="-10"/>
      <point x="308" y="11"/>
      <point x="331" y="47" type="curve"/>
      <point x="334" y="47" type="line"/>
      <point x="351" y="0" type="line"/>
      <point x="479" y="0" type="line"/>
    </contour>
    <contour>
      <point x="739" y="760" type="line"/>
      <point x="569" y="760" type="line"/>
      <point x="569" y="-240" type="line"/>
      <point x="731" y="-240" type="line"/>
      <point x="731" y="216" type="line" smooth="yes"/>
      <point x="731" y="324"/>
      <point x="752" y="373"/>
      <point x="794" y="373" type="curve" smooth="yes"/>
      <point x="824" y="373"/>
      <point x="837" y="345"/>
      <point x="837" y="295" type="curve" smooth="yes"/>
      <point x="837" y="0" type="line"/>
      <point x="999" y="0" type="line"/>
      <point x="999" y="336" type="line" smooth="yes"/>
      <point x="999" y="454"/>
      <point x="941" y="518"/>
      <point x="854" y="518" type="curve" smooth="yes"/>
      <point x="793" y="518"/>
      <point x="759" y="501"/>
      <point x="738" y="471" type="curve"/>
      <point x="734" y="471" type="line"/>
      <point x="737" y="495"/>
      <point x="739" y="520"/>
      <point x="739" y="544" type="curve" smooth="yes"/>
    </contour>
  </outline>
</glyph>
<glyph name="uniFB16" format="2">
  <advance width="1062"/>
  <unicode hex="FB16"/>
  <note>
uniFB16
</note>
  <outline>
    <contour>
      <point x="479" y="-105" type="line"/>
      <point x="479" y="760" type="line"/>
      <point x="317" y="760" type="line"/>
      <point x="317" y="292" type="line" smooth="yes"/>
      <point x="317" y="184"/>
      <point x="296" y="135"/>
      <point x="254" y="135" type="curve" smooth="yes"/>
      <point x="224" y="135"/>
      <point x="211" y="163"/>
      <point x="211" y="213" type="curve" smooth="yes"/>
      <point x="211" y="508" type="line"/>
      <point x="49" y="508" type="line"/>
      <point x="49" y="172" type="line" smooth="yes"/>
      <point x="49" y="54"/>
      <point x="107" y="-10"/>
      <point x="196" y="-10" type="curve" smooth="yes"/>
      <point x="259" y="-10"/>
      <point x="295" y="11"/>
      <point x="318" y="47" type="curve"/>
      <point x="321" y="47" type="line"/>
      <point x="319" y="25"/>
      <point x="317" y="2"/>
      <point x="317" y="-20" type="curve" smooth="yes"/>
      <point x="317" y="-240" type="line"/>
      <point x="585" y="-240" type="line"/>
      <point x="585" y="-105" type="line"/>
    </contour>
    <contour>
      <point x="389" y="760" type="line"/>
      <point x="389" y="625" type="line"/>
      <point x="606" y="625" type="line"/>
      <point x="606" y="760" type="line"/>
    </contour>
    <contour>
      <point x="651" y="510" type="line"/>
      <point x="601" y="411"/>
      <point x="567" y="308"/>
      <point x="567" y="215" type="curve" smooth="yes"/>
      <point x="567" y="68"/>
      <point x="629" y="-10"/>
      <point x="729" y="-10" type="curve" smooth="yes"/>
      <point x="792" y="-10"/>
      <point x="831" y="11"/>
      <point x="864" y="47" type="curve"/>
      <point x="867" y="47" type="line"/>
      <point x="884" y="0" type="line"/>
      <point x="1012" y="0" type="line"/>
      <point x="1012" y="508" type="line"/>
      <point x="850" y="508" type="line"/>
      <point x="850" y="292" type="line" smooth="yes"/>
      <point x="850" y="164"/>
      <point x="829" y="134"/>
      <point x="787" y="134" type="curve" smooth="yes"/>
      <point x="750" y="134"/>
      <point x="729" y="165"/>
      <point x="729" y="221" type="curve" smooth="yes"/>
      <point x="729" y="344"/>
      <point x="766" y="466"/>
      <point x="795" y="548" type="curve"/>
      <point x="795" y="563" type="line"/>
      <point x="676" y="563" type="line"/>
    </contour>
    <contour>
      <point x="795" y="563" type="line"/>
      <point x="771" y="575" type="line" smooth="yes"/>
      <point x="737" y="592"/>
      <point x="730" y="606"/>
      <point x="730" y="628" type="curve" smooth="yes"/>
      <point x="730" y="647"/>
      <point x="735" y="671"/>
      <point x="744" y="699" type="curve" smooth="yes"/>
      <point x="752" y="725" type="line"/>
      <point x="606" y="760" type="line"/>
      <point x="587" y="696" type="line" smooth="yes"/>
      <point x="580" y="673"/>
      <point x="574" y="645"/>
      <point x="574" y="615" type="curve" smooth="yes"/>
      <point x="574" y="566"/>
      <point x="586" y="544"/>
      <point x="628" y="522" type="curve" smooth="yes"/>
      <point x="651" y="510" type="line"/>
    </contour>
  </outline>
</glyph>
